<?xml version="1.0" encoding="UTF-8" standalone="no"?>
<svg
   version="1.2"
   width="385.35mm"
   height="495.73mm"
   viewBox="0 0 38535 49573"
   preserveAspectRatio="xMidYMid"
   fill-rule="evenodd"
   stroke-width="28.222"
   stroke-linejoin="round"
   xml:space="preserve"
   id="svg689"
   sodipodi:docname="deer1B.svg"
   inkscape:version="1.2.2 (732a01da63, 2022-12-09, custom)"
   xmlns:inkscape="http://www.inkscape.org/namespaces/inkscape"
   xmlns:sodipodi="http://sodipodi.sourceforge.net/DTD/sodipodi-0.dtd"
   xmlns="http://www.w3.org/2000/svg"
   xmlns:svg="http://www.w3.org/2000/svg"
   xmlns:ooo="http://xml.openoffice.org/svg/export"><sodipodi:namedview
   id="namedview691"
   pagecolor="#ffffff"
   bordercolor="#000000"
   borderopacity="0.25"
   inkscape:showpageshadow="2"
   inkscape:pageopacity="0.0"
   inkscape:pagecheckerboard="0"
   inkscape:deskcolor="#d1d1d1"
   inkscape:document-units="mm"
   showgrid="false"
   inkscape:zoom="0.44192402"
   inkscape:cx="727.50062"
   inkscape:cy="574.75943"
   inkscape:window-width="1920"
   inkscape:window-height="1031"
   inkscape:window-x="0"
   inkscape:window-y="25"
   inkscape:window-maximized="1"
   inkscape:current-layer="layer2" />
 <defs
   class="ClipPathGroup"
   id="defs596">
  <clipPath
   id="presentation_clip_path"
   clipPathUnits="userSpaceOnUse">
   <rect
   x="0"
   y="0"
   width="38535"
   height="49573"
   id="rect590" />
  </clipPath>
  <clipPath
   id="presentation_clip_path_shrink"
   clipPathUnits="userSpaceOnUse">
   <rect
   x="38"
   y="49"
   width="38458"
   height="49474"
   id="rect593" />
  </clipPath>
 </defs>
 <defs
   class="TextShapeIndex"
   id="defs600">
  <g
   ooo:slide="id1"
   ooo:id-list="id3 id4 id5 id6 id7"
   id="g598" />
 </defs>
 <defs
   class="EmbeddedBulletChars"
   id="defs632">
  <g
   id="bullet-char-template-57356"
   transform="scale(0.00048828125,-0.00048828125)">
   <path
   d="M 580,1141 L 1163,571 580,0 -4,571 580,1141 Z"
   id="path602" />
  </g>
  <g
   id="bullet-char-template-57354"
   transform="scale(0.00048828125,-0.00048828125)">
   <path
   d="M 8,1128 L 1137,1128 1137,0 8,0 8,1128 Z"
   id="path605" />
  </g>
  <g
   id="bullet-char-template-10146"
   transform="scale(0.00048828125,-0.00048828125)">
   <path
   d="M 174,0 L 602,739 174,1481 1456,739 174,0 Z M 1358,739 L 309,1346 659,739 1358,739 Z"
   id="path608" />
  </g>
  <g
   id="bullet-char-template-10132"
   transform="scale(0.00048828125,-0.00048828125)">
   <path
   d="M 2015,739 L 1276,0 717,0 1260,543 174,543 174,936 1260,936 717,1481 1274,1481 2015,739 Z"
   id="path611" />
  </g>
  <g
   id="bullet-char-template-10007"
   transform="scale(0.00048828125,-0.00048828125)">
   <path
   d="M 0,-2 C -7,14 -16,27 -25,37 L 356,567 C 262,823 215,952 215,954 215,979 228,992 255,992 264,992 276,990 289,987 310,991 331,999 354,1012 L 381,999 492,748 772,1049 836,1024 860,1049 C 881,1039 901,1025 922,1006 886,937 835,863 770,784 769,783 710,716 594,584 L 774,223 C 774,196 753,168 711,139 L 727,119 C 717,90 699,76 672,76 641,76 570,178 457,381 L 164,-76 C 142,-110 111,-127 72,-127 30,-127 9,-110 8,-76 1,-67 -2,-52 -2,-32 -2,-23 -1,-13 0,-2 Z"
   id="path614" />
  </g>
  <g
   id="bullet-char-template-10004"
   transform="scale(0.00048828125,-0.00048828125)">
   <path
   d="M 285,-33 C 182,-33 111,30 74,156 52,228 41,333 41,471 41,549 55,616 82,672 116,743 169,778 240,778 293,778 328,747 346,684 L 369,508 C 377,444 397,411 428,410 L 1163,1116 C 1174,1127 1196,1133 1229,1133 1271,1133 1292,1118 1292,1087 L 1292,965 C 1292,929 1282,901 1262,881 L 442,47 C 390,-6 338,-33 285,-33 Z"
   id="path617" />
  </g>
  <g
   id="bullet-char-template-9679"
   transform="scale(0.00048828125,-0.00048828125)">
   <path
   d="M 813,0 C 632,0 489,54 383,161 276,268 223,411 223,592 223,773 276,916 383,1023 489,1130 632,1184 813,1184 992,1184 1136,1130 1245,1023 1353,916 1407,772 1407,592 1407,412 1353,268 1245,161 1136,54 992,0 813,0 Z"
   id="path620" />
  </g>
  <g
   id="bullet-char-template-8226"
   transform="scale(0.00048828125,-0.00048828125)">
   <path
   d="M 346,457 C 273,457 209,483 155,535 101,586 74,649 74,723 74,796 101,859 155,911 209,963 273,989 346,989 419,989 480,963 531,910 582,859 608,796 608,723 608,648 583,586 532,535 482,483 420,457 346,457 Z"
   id="path623" />
  </g>
  <g
   id="bullet-char-template-8211"
   transform="scale(0.00048828125,-0.00048828125)">
   <path
   d="M -4,459 L 1135,459 1135,606 -4,606 -4,459 Z"
   id="path626" />
  </g>
  <g
   id="bullet-char-template-61548"
   transform="scale(0.00048828125,-0.00048828125)">
   <path
   d="M 173,740 C 173,903 231,1043 346,1159 462,1274 601,1332 765,1332 928,1332 1067,1274 1183,1159 1299,1043 1357,903 1357,740 1357,577 1299,437 1183,322 1067,206 928,148 765,148 601,148 462,206 346,322 231,437 173,577 173,740 Z"
   id="path629" />
  </g>
 </defs>
 
 <g
   inkscape:groupmode="layer"
   id="layer2"
   inkscape:label="Layer 1"><path
     fill="#443205"
     stroke="none"
     d="m 31881,41125 -206,58 -56,17 -97,67 -151,42 -496,156 -403,-50 -262,-81 -206,-332 3,-264 91,-362 53,-265 23,-228 119,-262 151,-14 284,209 1036,170 200,465 742,89 403,170 270,-181 220,22 14,354 -81,303 -139,468 -289,301 -357,112 -404,-134 -262,-136 -200,-485 z"
     id="path641"
     style="display:inline" /><path
     fill="#443205"
     stroke="none"
     d="m 17944,46633 -181,216 -252,439 -193,367 121,259 421,120 390,36 367,-132 409,-193 193,-48 -175,553 -294,656 -49,373 367,126 535,84 518,-138 439,-138 324,-265 109,-156 -115,-37 -150,-18 -433,-90 -192,-78 -524,-565 -162,-222 -108,-187 -24,-168 -343,-193 -511,-120 z"
     id="path648"
     style="display:inline" /><path
     fill="#b47804"
     stroke="none"
     d="m 16693,15595 120,-310 341,-196 158,-83 250,-61 249,-91 197,-98 280,-38 234,-30 166,-23 117,154 69,-11 -325,426 -768,666 -555,427 -964,623 -717,273 137,-179 418,-393 222,-392 77,-137 230,-171 115,-71 z m -4446,4505 181,-393 333,98 15,43 1032,-306 -3,10 1000,-373 1118,-612 1096,-688 771,-567 809,-681 885,-869 740,-900 310,-294 159,-31 46,47 643,-32 540,-116 867,-318 508,-148 634,-313 -1,-19 463,-295 764,-355 985,-336 1924,-596 3067,-493 566,-36 1437,114 944,169 1317,842 1058,986 848,523 684,592 348,349 50,410 38,643 -229,195 -146,253 -199,567 -218,172 9,397 -343,1510 -247,967 -216,349 -325,908 -1010,2225 -451,986 -307,932 -162,752 156,481 469,535 157,433 -145,427 -162,788 -144,547 -211,559 -34,3 -139,720 -211,1122 -307,1450 -74,1016 -191,1206 -211,1186 -53,952 127,815 -10,-1 105,520 32,571 -212,730 -423,318 -413,-191 -826,-106 -105,-433 -657,-96 -402,-74 -264,-222 -149,-339 106,-338 43,-244 127,-137 148,-297 180,-508 2,1 82,-307 170,-1080 127,-952 74,-1027 159,-974 v -1566 l -96,-847 -281,-579 -43,3 -325,-692 -667,-529 -770,-1070 72,-198 -180,78 -90,-625 -163,421 -174,577 -205,240 -120,-222 -319,523 -48,-710 -180,-186 -72,523 -163,343 -216,-980 -222,108 30,163 -37,384 -90,445 -24,91 -138,-151 24,-306 -114,-391 -122,-194 -23,1 -14,2 -58,347 -42,265 -60,138 -168,-48 -235,-102 -373,18 -96,-644 -15,-23 -147,-19 -67,9 -17,244 -37,258 -276,361 -301,-6 53,-581 -91,132 -53,106 -360,296 -317,307 -307,434 -191,592 -233,1567 -243,1132 -328,1376 -265,1143 43,709 -32,614 -32,391 117,360 -265,1144 -201,804 -265,1841 v 95 l -42,1291 -85,1366 191,1164 47,568 80,24 -180,498 -191,264 -359,75 -180,402 -106,180 275,539 169,286 -31,318 -117,243 -328,201 h -222 l -455,-74 -540,-339 -267,-458 2,24 -190,-201 -127,-275 -212,-159 -497,-105 -132,-141 -195,-190 -227,-249 38,-318 174,-370 400,-734 159,-484 98,-506 114,-900 60,-786 v -982 l 38,-1293 -68,-688 -53,-907 -219,-553 -318,-597 -347,-936 -144,-394 -68,-748 -53,-711 -378,-1285 68,-386 8,-620 -31,-400 -35,-51 -122,-10 -211,1460 -189,242 11,-91 -48,-32 64,-395 -151,652 -479,155 -467,3 -97,-314 19,-293 87,-460 119,-343 152,50 -27,-557 -143,-1150 -129,-453 -340,1225 -155,1046 -27,14 107,768 -273,176 1,4 -4,-2 -25,16 -123,-5 -295,-691 32,-16 -24,-64 -37,-858 -201,-30 -356,1491 -92,-155 -42,-410 -105,-871 390,-1265 -185,-8 -130,268 -469,767 -167,791 -109,-214 30,-880 -149,82 66,-611 -496,33 -331,628 -50,-1306 -562,1438 -82,-397 115,-1637 -182,232 -181,727 -249,298 83,-1405 -265,412 -83,337 -204,436 -359,512 -273,25 403,-973 -409,28 -14,6 h 11 l -153,359 -367,427 -56,-423 -70,120 -20,-9 -26,49 -5,-64 -71,-33 63,-66 -38,-487 -376,-308 -606,86 -409,358 -333,666 -845,273 -529,-8 -683,-419 -692,-529 -213,-1485 205,-401 145,-384 188,-495 239,-478 281,-435 359,-529 239,-598 247,-529 69,-265 -34,-256 -137,-120 94,-196 -26,-307 17,-444 239,-239 461,-282 282,-367 -120,-222 -759,-264 -879,-453 -521,-520 -350,-777 -128,-614 154,8 452,162 734,282 572,85 674,69 321,42 107,72 27,-70 204,-307 337,-331 h 150 l 72,-66 169,-162 162,-96 289,-121 216,24 h 283 l 270,-12 235,205 511,84 680,-120 505,-307 -127,914 -120,192 -30,151 -36,258 192,367 151,301 -18,198 -103,277 -156,174 -105,246 267,-50 463,-463 104,-170 142,-180 -10,-245 -142,-256 -75,-283 -10,-293 94,-182 z m 7932,10274 -128,408 -174,666 121,2479 174,1739 121,1126 45,1119 -272,877 -159,907 -15,680 23,733 105,1732 46,990 121,1286 30,355 -32,69 147,-152 340,-1012 117,-1111 74,-826 -11,-952 11,-466 53,-518 -117,-794 -158,-624 -244,-836 -31,-911 74,-635 63,-497 -74,-540 32,-392 117,-444 137,-953 -74,-762 -53,-815 v -984 l -148,-550 -148,-191 -95,-169 3,-85 z m 11987,4329 -137,730 -85,953 21,846 95,921 23,85 52,21 145,14 -8,-141 159,-614 254,-1154 95,-550 244,-1227 148,-974 21,-857 -95,-1143 -138,-561 -80,-244 27,159 117,349 -233,593 -233,688 -233,1196 -63,529 z"
     id="path655"
     style="display:inline" /><path
     fill="#ffe994"
     stroke="none"
     d="m 3754,10944 112,614 -58,-485 -258,-1241 -157,-699 -175,156 -285,434 -88,190 461,163 251,20 183,821 -237,-68 -434,-258 -428,-149 -251,583 -101,679 -21,502 40,16 171,-179 447,-427 312,-279 326,-217 z m -163,861 -387,489 -196,475 -7,-3 -251,749 68,977 203,550 197,413 142,123 346,346 71,225 -78,-693 109,-2240 95,-488 h 2 l 11,-217 7,-475 -55,-460 z m 407,5177 -163,-34 -278,-210 -393,-333 -326,-380 -427,-475 -407,-759 -326,-1147 -115,-604 54,-1397 95,-563 305,-787 -224,-190 -617,61 -509,170 -556,210 -21,-102 238,-237 359,-197 319,-203 706,-170 421,34 210,61 190,-292 339,-515 170,-204 230,14 85,241 -24,-106 -190,-773 -136,-1025 -20,-1248 183,-1208 170,-692 149,-312 176,-34 -102,787 -34,1662 41,787 238,1255 85,335 -31,-233 -54,-115 244,-170 204,-265 285,-284 285,-184 -82,353 -312,550 -373,488 -112,73 186,728 319,800 421,319 291,-60 516,-428 299,-326 610,-827 536,-1038 278,-903 143,-909 88,-590 20,-624 136,-217 156,569 54,1154 -169,1072 -360,1065 -448,915 -217,299 -74,129 81,326 34,115 -68,211 -149,325 -272,190 -257,-20 68,298 318,217 475,218 557,291 264,116 -237,190 -584,-34 -698,-82 -726,-224 -353,95 -149,265 -113,678 -57,590 -48,455 116,-20 115,-299 204,-170 162,-237 -33,488 -75,496 -20,556 27,488 88,441 190,570 88,258 41,95 -41,61 129,122 902,543 1011,522 977,428 719,569 427,407 -196,28 -326,-21 -353,14 -319,149 -271,271 h -170 l -108,116 -217,196 -122,-339 -55,-81 -413,-434 -842,-306 -949,-312 -930,-705 30,-47 -288,-292 -312,-665 -139,-419 z m 8999,799 265,121 378,-53 401,-242 294,-265 507,-521 224,-314 v 0 l 445,-869 230,-719 185,-767 137,-1275 -80,-1679 -53,-362 -31,-331 h 106 l 115,229 260,697 150,803 18,732 -62,1592 -419,1728 -401,738 v 120 l 418,-175 706,-401 1142,-833 1185,-1070 899,-1034 521,-1007 367,-819 162,-1025 60,-716 -222,-708 -350,-786 -580,-1212 -342,-1101 -85,-871 162,-870 365,-871 180,-108 -229,1005 -77,452 43,512 196,990 359,811 426,973 376,623 230,564 137,546 128,290 67,-111 -18,4 669,-1219 844,-2003 376,-1560 140,-911 14,-939 -41,-877 -127,-1192 -134,-952 -100,-435 167,88 295,576 228,710 187,1373 54,1078 -34,1018 94,704 281,53 429,-375 335,-422 214,-562 355,-603 369,-623 402,-616 388,-402 389,-255 321,-161 610,-107 536,-60 120,107 -87,163 -489,92 -596,187 -583,369 -475,636 -288,549 -422,984 -262,576 -489,811 -341,496 -355,389 -255,281 -268,301 -187,409 -14,335 215,114 502,-188 50,-16 39,-200 159,-296 -22,-275 -74,-222 -169,-201 392,-360 158,169 127,370 43,530 -88,304 35,-11 261,121 529,207 335,456 v 315 l -100,515 -208,570 -201,837 174,214 442,215 329,107 -94,74 -362,73 -308,-120 -301,-195 -295,-482 40,-650 188,-710 -61,-348 -288,-161 -522,141 -476,301 -248,-6 -549,140 -221,268 -512,792 -811,1437 -803,1211 -879,1144 -512,666 -19,-7 -732,782 -1662,1530 -1226,873 -5,-6 -827,549 -824,386 -929,363 -673,143 -492,174 -294,-90 -159,325 -83,597 128,370 76,235 -8,211 -196,114 -310,385 -378,310 -53,-98 355,-582 -7,-340 -174,-363 -114,-363 76,-310 83,-212 68,-809 159,-385 v -476 l -94,-429 -43,10 -159,-705 -84,-918 40,-1547 203,-657 282,-1090 564,-1050 287,-396 115,-57 17,106 -128,326 -145,269 -97,357 -194,494 -154,423 -49,327 -132,1040 123,1464 71,441 176,467 255,349 z"
     id="path662"
     style="display:inline" /><path
     fill="#000000"
     stroke="none"
     d="m 19140,49517 c -60,-25 -150,-46 -201,-46 -51,0 -160,-31 -243,-69 -115,-52 -150,-87 -150,-152 0,-137 153,-543 389,-1031 179,-368 227,-507 249,-705 19,-176 67,-329 164,-529 75,-155 158,-354 183,-441 77,-266 155,-430 317,-667 156,-228 285,-571 285,-757 1,-55 -30,-262 -67,-458 -67,-358 -155,-1490 -144,-1858 3,-106 -15,-527 -40,-934 -55,-908 -55,-1887 0,-2382 42,-375 82,-563 287,-1323 106,-393 113,-448 91,-776 -13,-194 -31,-519 -41,-723 -9,-204 -31,-466 -50,-582 -18,-116 -51,-328 -73,-471 -22,-142 -32,-303 -21,-356 11,-54 -3,-231 -30,-394 -27,-163 -72,-431 -100,-596 -143,-848 -205,-2333 -116,-2787 142,-728 175,-871 220,-959 42,-81 42,-102 -4,-147 -29,-29 -52,-86 -52,-127 0,-41 -24,-131 -53,-201 -66,-156 -68,-259 -6,-259 82,0 199,159 274,372 40,114 104,251 142,304 37,53 85,149 106,213 21,64 61,168 89,232 98,221 123,500 169,1884 7,208 25,397 40,422 15,24 32,227 38,452 12,458 -50,886 -190,1306 -76,228 -87,321 -81,671 11,669 5,1104 -18,1238 -45,273 -40,936 9,1179 27,135 72,401 99,590 27,188 76,383 108,433 32,49 79,180 104,291 25,112 72,298 105,414 74,259 102,1427 47,1887 -20,165 -41,456 -47,646 -15,527 -52,991 -111,1418 -30,214 -68,491 -84,618 -50,386 -141,747 -213,849 -38,53 -69,114 -69,136 0,81 -175,377 -307,518 -123,132 -328,546 -328,661 0,26 -32,76 -70,111 -39,35 -71,86 -71,113 0,27 -40,108 -88,179 -49,72 -88,148 -88,170 0,22 -34,83 -75,135 -69,88 -72,112 -35,295 45,225 95,302 130,199 28,-82 133,-321 247,-562 46,-97 155,-263 243,-370 88,-107 160,-212 160,-234 0,-61 95,-129 122,-87 12,20 -31,96 -95,169 -146,167 -291,383 -349,522 -24,58 -63,130 -85,159 -48,61 -157,393 -157,474 0,203 366,659 641,799 125,64 179,138 101,138 -64,0 -401,-145 -498,-214 -53,-37 -112,-68 -132,-68 -37,0 -159,378 -199,617 -13,78 -33,177 -43,221 -18,73 -7,79 135,79 410,0 1229,-362 1229,-543 0,-33 -29,-57 -70,-57 -39,0 -71,-16 -71,-35 0,-20 93,-35 209,-35 189,0 216,-10 300,-109 93,-111 107,-150 142,-412 25,-183 -37,-343 -226,-589 -180,-235 -206,-381 -111,-635 76,-204 169,-370 232,-416 20,-14 112,-26 205,-26 193,-1 324,-99 361,-271 12,-55 37,-136 55,-181 43,-106 42,-695 -1,-913 -122,-617 -216,-1405 -190,-1588 8,-55 29,-424 48,-822 30,-659 83,-1447 177,-2649 39,-490 193,-1157 403,-1742 128,-359 216,-893 175,-1059 -12,-47 -52,-96 -89,-107 -83,-27 -84,2 21,-434 102,-422 110,-593 33,-775 -94,-223 -68,-534 93,-1136 80,-301 150,-587 154,-635 12,-126 158,-754 236,-1013 36,-121 66,-256 66,-302 0,-45 49,-232 108,-416 59,-183 122,-436 139,-562 16,-126 72,-497 122,-825 50,-327 97,-669 103,-758 7,-90 28,-203 48,-252 45,-113 96,-604 83,-816 -9,-159 37,-249 87,-168 14,22 29,113 34,203 4,90 11,180 13,199 7,42 87,-55 326,-395 178,-254 456,-502 641,-572 91,-35 97,-48 75,-170 -29,-158 -133,-437 -226,-609 -37,-68 -87,-159 -110,-203 -52,-95 -16,-144 67,-93 101,62 470,645 491,777 25,153 -55,593 -122,676 -44,54 -47,49 -27,-46 12,-58 29,-209 37,-335 l 15,-229 -43,157 c -36,127 -70,171 -180,229 -203,106 -422,330 -599,610 -50,79 -108,155 -129,168 -20,12 -82,113 -137,223 -74,149 -116,314 -161,641 -33,243 -81,595 -107,784 -51,375 -107,639 -180,857 -26,77 -72,284 -101,458 -30,175 -72,373 -94,441 -21,68 -43,147 -48,177 -5,29 -18,76 -29,105 -11,29 -36,156 -55,283 -20,126 -54,300 -77,388 -23,87 -97,381 -166,652 -68,272 -143,558 -167,635 -57,184 -48,628 13,701 57,69 22,631 -53,855 -44,131 -42,166 22,353 108,314 100,603 -30,1006 -60,187 -132,393 -160,459 -78,183 -174,523 -202,718 -14,97 -61,359 -104,583 -44,226 -82,576 -87,793 -5,214 -18,452 -30,529 -46,304 -96,1090 -110,1721 -8,364 -22,673 -31,688 -50,83 75,1273 186,1772 19,87 35,270 36,405 1,624 -224,1005 -572,965 -92,-11 -133,0 -147,39 -10,30 -59,125 -108,210 -120,211 -112,311 39,480 403,449 380,938 -64,1402 -106,112 -211,203 -232,203 -22,0 -99,56 -173,124 -156,144 -416,299 -503,299 -33,0 -159,40 -279,89 -180,73 -268,87 -502,80 -156,-4 -332,-28 -391,-53 z m 290,-888 c 30,-99 73,-199 97,-222 70,-71 49,-262 -40,-370 -46,-55 -99,-129 -118,-165 -32,-58 -46,-48 -125,88 -118,205 -226,448 -347,783 -113,312 -136,298 249,153 225,-85 230,-90 284,-267 z m 1056,-3884 c 56,-204 111,-474 123,-600 13,-126 38,-320 57,-430 19,-110 42,-372 51,-582 9,-210 36,-509 60,-664 29,-182 45,-670 45,-1376 0,-1217 -42,-1559 -231,-1905 -93,-170 -141,-338 -200,-702 -35,-216 -104,-251 -133,-67 -12,74 -46,222 -75,328 -29,107 -58,244 -65,304 -6,60 -28,140 -47,176 -20,37 -47,282 -62,544 -14,261 -36,500 -50,529 -33,69 38,1120 80,1188 10,17 22,355 27,753 4,397 20,778 35,846 15,67 46,437 68,822 22,384 59,749 83,811 45,122 49,383 6,510 -20,60 -13,79 30,79 33,0 65,-40 77,-97 12,-53 66,-264 121,-467 z m -58,-8449 c -3,-136 -23,-292 -44,-347 -92,-237 -40,-719 156,-1434 68,-249 68,-817 -1,-1271 -37,-250 -51,-609 -48,-1226 3,-596 -10,-926 -40,-1040 -53,-203 -122,-227 -89,-30 41,242 -38,185 -84,-60 -25,-130 -52,-264 -62,-298 -28,-105 -82,-69 -82,56 0,65 -33,275 -73,467 -141,674 -103,2416 73,3384 21,116 63,505 93,864 58,704 109,1277 116,1305 3,10 24,-14 47,-53 25,-40 41,-176 38,-317 z m -3105,11801 c -105,-1 -191,-38 -170,-72 10,-16 25,-106 34,-199 21,-225 293,-772 499,-1005 194,-218 236,-316 188,-441 -50,-132 11,-292 214,-557 176,-230 449,-736 496,-920 15,-58 51,-195 81,-304 30,-110 72,-340 93,-512 21,-172 63,-471 93,-665 74,-468 92,-3524 26,-4269 -68,-769 -110,-897 -405,-1257 -96,-116 -152,-233 -194,-405 -33,-134 -127,-386 -209,-560 -178,-383 -254,-726 -299,-1358 -21,-284 -90,-748 -171,-1147 -135,-662 -217,-935 -282,-935 -18,0 -44,-57 -57,-127 -17,-95 -9,-137 32,-167 31,-23 72,-136 91,-253 42,-250 51,-839 15,-983 -20,-78 -15,-98 22,-86 68,23 96,147 100,449 2,144 13,252 24,240 45,-44 119,-911 120,-1399 0,-408 9,-501 44,-466 33,33 43,228 38,764 -6,599 -23,805 -100,1241 -54,303 -115,548 -147,583 -49,54 -47,72 27,191 45,72 101,228 124,346 24,118 63,309 86,426 24,116 76,338 116,494 40,155 78,377 84,493 30,547 88,998 143,1097 22,40 48,138 57,217 10,80 57,206 105,280 55,84 98,215 114,347 27,231 74,336 267,601 70,96 155,230 190,298 180,351 282,1413 274,2840 -1,185 -41,986 -52,1041 -5,29 2,156 17,282 25,204 6,468 -72,1041 -11,77 -25,236 -32,352 -6,117 -27,276 -46,353 -20,78 -36,229 -37,335 -1,170 -106,568 -210,794 -18,39 -57,150 -88,247 -31,99 -131,270 -227,388 -192,235 -289,474 -283,698 3,82 12,117 21,78 54,-240 398,-771 459,-710 12,12 -12,59 -54,104 -42,45 -77,94 -77,109 0,15 -29,70 -65,121 -82,117 -120,257 -132,478 -8,154 3,185 112,296 66,68 120,136 120,151 0,14 40,36 89,48 107,27 117,91 14,91 -95,0 -314,-172 -423,-333 -47,-69 -104,-125 -127,-125 -64,-1 -287,278 -312,390 -12,55 -49,136 -82,181 -94,124 -190,365 -176,438 16,83 171,114 171,34 0,-30 47,-158 106,-285 58,-127 105,-241 105,-253 0,-61 188,-261 217,-232 32,31 -2,128 -175,503 -40,87 -78,214 -84,282 l -10,123 208,11 c 329,17 639,-46 829,-168 182,-117 250,-133 250,-61 0,136 -410,372 -804,461 -320,73 -518,68 -695,-15 -78,-37 -176,-68 -218,-68 z m 1542,-870 c -61,-51 -102,-100 -93,-110 24,-24 268,131 268,170 0,57 -62,36 -175,-60 z m 13714,-5115 c -32,-32 -137,-66 -234,-75 -145,-14 -196,-39 -296,-145 -164,-174 -309,-431 -309,-547 0,-97 -94,-168 -136,-103 -13,19 -134,77 -270,130 -136,52 -300,118 -365,147 -65,29 -188,63 -273,74 -140,19 -157,14 -187,-66 -28,-72 -57,-88 -170,-88 -162,0 -276,-54 -333,-161 -62,-114 -46,-703 22,-835 63,-122 69,-220 16,-273 -58,-58 -3,-276 113,-444 94,-138 100,-166 80,-379 l -21,-229 281,-551 c 203,-400 293,-618 326,-794 25,-133 58,-278 74,-320 50,-138 176,-965 229,-1510 48,-500 92,-919 155,-1482 15,-136 46,-444 68,-684 22,-241 48,-449 56,-463 29,-46 15,-1533 -16,-1781 -49,-386 -152,-729 -281,-935 -18,-29 -78,-130 -133,-225 -55,-95 -131,-222 -170,-282 -39,-61 -103,-165 -142,-232 -80,-140 -372,-444 -526,-549 -258,-175 -485,-417 -673,-719 -121,-195 -214,-286 -292,-286 -83,0 -84,-4 -60,-210 13,-116 12,-278 -3,-362 l -26,-151 -65,212 c -35,116 -64,244 -65,284 -1,182 -330,686 -448,686 -30,0 -46,-47 -46,-132 v -133 l -101,214 c -161,341 -280,510 -358,510 -83,0 -86,-14 -21,-116 82,-128 101,-299 75,-648 -19,-248 -37,-330 -74,-330 -35,0 -50,43 -50,140 0,138 -60,321 -237,715 -101,227 -191,274 -168,89 46,-373 47,-610 4,-711 -64,-152 -163,-464 -163,-511 0,-66 89,-44 169,42 86,90 151,370 152,651 1,101 15,185 31,185 71,0 124,-283 123,-662 0,-218 14,-397 30,-397 46,0 162,146 225,283 33,72 66,270 78,476 l 22,353 76,-162 c 192,-402 226,-612 134,-832 -69,-164 -67,-188 15,-188 38,0 79,32 91,70 36,113 88,82 88,-50 0,-67 16,-132 36,-144 70,-43 78,95 23,398 -88,486 -97,559 -74,618 18,48 28,47 84,-9 72,-72 146,-287 230,-671 31,-146 74,-329 96,-406 21,-78 41,-252 45,-388 8,-265 37,-371 102,-371 28,0 41,136 41,450 1,534 40,865 99,847 64,-19 195,-306 237,-521 65,-325 96,-813 62,-963 -25,-112 -20,-154 23,-196 34,-34 66,-42 85,-21 27,30 112,652 115,845 4,244 73,390 112,238 13,-46 18,-48 21,-7 6,84 -126,436 -170,450 -25,9 -38,-77 -38,-254 0,-292 -50,-357 -89,-118 -14,82 -45,190 -69,238 -24,49 -78,154 -120,234 -102,199 -95,259 49,427 68,79 123,157 124,174 1,56 511,559 634,625 163,88 442,422 618,739 77,140 201,346 274,458 205,315 341,745 342,1084 1,88 26,255 56,370 41,155 55,372 54,822 -2,336 -11,625 -22,642 -10,17 -26,215 -35,440 -9,225 -32,438 -51,475 -20,36 -42,198 -50,360 -7,162 -32,339 -53,394 -22,56 -38,176 -34,268 3,93 -5,184 -17,204 -12,20 -31,154 -41,297 -10,143 -28,323 -40,401 -12,77 -26,236 -30,353 -4,116 -25,267 -46,335 -39,123 -72,295 -150,758 -48,290 -205,793 -266,854 -24,24 -77,114 -119,200 -42,87 -99,177 -127,200 -28,23 -52,68 -53,100 -1,31 -23,119 -50,194 -36,102 -39,160 -11,229 20,51 48,160 62,243 21,124 15,150 -31,150 -31,0 -101,56 -156,124 -80,101 -95,146 -75,234 14,64 51,116 90,126 49,13 67,50 67,135 0,75 23,131 62,154 47,28 19,36 -124,37 -175,1 -185,6 -185,92 0,49 -17,123 -38,162 -28,52 -28,83 0,111 21,21 38,88 38,148 0,72 30,139 86,191 47,44 78,99 69,122 -18,49 51,58 392,57 355,-2 463,-49 705,-304 117,-122 257,-269 311,-325 l 100,-103 -73,-119 c -93,-153 -92,-274 5,-499 73,-171 82,-247 64,-561 -8,-126 92,-360 256,-603 59,-87 62,-122 25,-370 -22,-150 -70,-404 -107,-563 -90,-387 -128,-1379 -72,-1888 22,-208 49,-494 59,-635 23,-309 157,-1025 297,-1579 56,-223 152,-628 211,-900 159,-718 351,-1426 429,-1580 l 69,-135 -89,-187 c -136,-287 -176,-551 -178,-1167 -2,-478 -13,-586 -69,-706 -51,-108 -66,-215 -63,-458 7,-736 -94,-1050 -536,-1665 -128,-179 -233,-335 -233,-348 0,-12 -30,-65 -66,-116 -87,-124 -322,-755 -322,-866 0,-48 -16,-98 -35,-110 -20,-12 -35,1 -35,29 0,28 -32,150 -71,271 -39,122 -71,283 -71,358 0,75 -15,136 -35,136 -49,0 -44,-171 15,-469 28,-140 59,-460 70,-713 11,-252 35,-514 54,-582 30,-104 34,-84 24,133 -7,140 0,255 14,255 42,0 61,-73 89,-337 27,-264 41,-309 85,-281 16,10 8,118 -18,242 -87,412 -51,782 114,1170 49,116 123,291 164,388 41,97 111,232 155,299 45,68 81,140 81,159 0,20 36,76 80,125 306,334 630,1037 626,1357 -4,278 -2,322 29,621 18,173 57,341 90,392 74,112 75,213 8,607 -38,224 -43,335 -17,383 20,38 58,211 84,386 27,175 71,344 99,376 100,115 207,595 251,1134 9,106 27,281 41,388 32,252 29,385 -22,917 -23,242 -47,491 -52,552 -24,262 -64,501 -114,682 -29,107 -60,250 -68,318 -16,140 -110,673 -243,1376 -176,929 -235,1185 -337,1464 -71,192 -97,643 -51,887 20,105 13,176 -24,247 -51,100 -192,351 -234,418 -68,108 -202,573 -240,833 -13,86 6,185 59,308 57,131 71,212 53,296 -14,63 -33,237 -42,385 -14,222 -3,300 59,446 110,256 339,448 416,349 43,-55 148,-705 148,-916 0,-168 43,-219 87,-105 53,136 53,566 2,736 -29,95 -53,224 -53,287 0,114 1,115 171,115 160,0 186,-14 403,-213 223,-203 233,-220 255,-414 12,-111 45,-272 73,-358 59,-183 66,-412 13,-445 -20,-12 -75,3 -122,33 -110,73 -180,73 -108,1 67,-67 67,-69 13,-155 -36,-58 -29,-79 53,-143 53,-41 137,-165 187,-275 87,-191 91,-220 73,-659 -14,-350 -40,-534 -111,-776 -144,-494 -163,-676 -122,-1175 46,-551 77,-805 153,-1259 143,-842 172,-1023 269,-1650 57,-363 105,-720 107,-793 11,-293 188,-1311 266,-1522 45,-123 107,-369 138,-546 31,-177 80,-434 109,-569 29,-136 81,-448 115,-693 50,-362 79,-474 157,-591 52,-79 95,-162 95,-186 0,-23 26,-70 57,-105 72,-79 120,-290 224,-992 24,-161 77,-336 127,-424 163,-285 93,-498 -285,-866 -145,-141 -264,-280 -264,-308 0,-28 -14,-51 -31,-51 -41,0 -101,-160 -126,-335 -27,-193 77,-784 155,-881 16,-20 41,-92 55,-160 14,-68 70,-234 124,-370 54,-136 155,-401 225,-590 69,-189 232,-554 361,-811 129,-258 327,-655 441,-883 114,-228 207,-448 207,-490 0,-43 38,-127 84,-187 46,-61 109,-182 138,-268 30,-87 96,-269 148,-405 111,-290 194,-589 195,-698 0,-43 31,-125 70,-184 38,-58 70,-151 70,-207 1,-133 73,-375 113,-375 17,0 44,35 59,77 35,93 56,63 144,-204 49,-148 57,-221 31,-278 -27,-59 -18,-120 36,-251 68,-162 133,-398 273,-980 36,-150 51,-311 39,-423 -14,-122 10,-333 72,-648 72,-364 84,-485 54,-547 -22,-44 -48,-151 -59,-238 -34,-277 -77,-474 -120,-554 -23,-42 -42,-118 -42,-169 0,-81 13,-92 96,-82 114,13 143,92 148,409 1,122 28,280 58,352 38,92 46,174 28,273 -14,77 -22,259 -16,402 10,277 -45,774 -111,1009 -22,78 -42,173 -45,212 -3,39 -31,174 -62,300 -31,126 -66,308 -78,405 -12,97 -44,256 -70,353 -26,97 -74,294 -107,437 -62,267 -173,554 -222,575 -48,20 -219,377 -219,456 0,42 -30,126 -66,186 -37,61 -126,277 -198,480 -72,204 -169,455 -216,557 -46,103 -84,200 -84,216 0,31 -374,806 -495,1027 -246,448 -542,1109 -582,1298 -26,122 -63,243 -84,267 -20,25 -62,147 -92,272 -31,124 -69,258 -86,297 -92,219 -178,639 -178,870 0,307 19,343 403,779 150,169 287,360 305,423 38,132 43,322 10,355 -45,46 -258,715 -259,814 -2,362 -152,909 -286,1043 -73,73 -99,139 -112,287 -9,105 -50,310 -91,456 -41,145 -75,345 -75,443 0,98 -14,193 -31,211 -17,19 -51,184 -75,367 -24,183 -56,358 -70,388 -63,134 -178,536 -178,626 0,54 -24,218 -54,364 -30,145 -69,399 -87,564 -18,165 -43,356 -56,423 -12,68 -26,220 -31,337 -4,117 -27,248 -50,292 -23,43 -33,94 -21,112 11,19 5,94 -14,167 -19,73 -60,292 -91,486 -31,194 -95,575 -142,847 -210,1209 -221,1669 -54,2222 80,265 159,786 158,1041 -2,315 -74,769 -139,868 -50,76 -53,107 -16,194 45,109 24,536 -36,727 -191,613 -192,616 -342,748 -227,200 -569,278 -690,157 z m -971,-930 c 50,-39 115,-71 146,-71 63,0 76,-54 21,-88 -19,-12 -35,-53 -35,-90 0,-97 -65,-86 -112,19 -23,49 -54,89 -70,89 -42,0 -171,133 -171,176 0,59 127,39 221,-35 z m 238,-741 c 0,-20 -16,-35 -36,-35 -19,0 -35,15 -35,35 0,19 16,35 35,35 20,0 36,-16 36,-35 z m 130,-1242 c -12,-28 -20,-19 -22,22 -1,37 7,58 19,46 11,-12 13,-42 3,-68 z m 261,-1274 c 252,-969 385,-1533 421,-1788 23,-165 113,-689 200,-1164 236,-1297 257,-1461 256,-1940 -1,-506 -53,-1336 -85,-1368 -54,-54 -158,140 -213,397 -33,156 -81,354 -106,441 -80,270 -242,1000 -247,1111 -3,59 -25,178 -50,265 -24,88 -57,215 -73,282 -43,179 -182,1151 -195,1359 -5,97 -31,382 -58,635 -61,589 -60,1273 1,1587 27,136 46,294 43,351 -8,157 43,76 106,-168 z m 5394,-20344 c 0,-19 -16,-35 -35,-35 -20,0 -36,16 -36,35 0,20 16,35 36,35 19,0 35,-15 35,-35 z m -7102,23718 c -13,-13 -24,-114 -24,-225 0,-149 18,-224 69,-285 l 70,-84 1,177 c 1,97 12,236 24,308 19,116 13,133 -48,133 -38,0 -79,-11 -92,-24 z m 330,-628 c -44,-46 -100,-76 -125,-67 -25,10 -56,0 -70,-21 -29,-48 -44,-495 -17,-495 11,0 38,70 61,155 48,178 299,425 469,463 115,25 179,91 80,82 -35,-4 -122,-12 -192,-20 -76,-8 -160,-48 -206,-97 z m 2186,52 c -43,-28 -37,-34 29,-35 45,0 71,15 59,35 -26,42 -22,42 -88,0 z m -364,-165 c -36,-35 -29,-342 11,-514 19,-82 43,-196 54,-251 11,-56 28,-93 38,-83 10,10 1,113 -20,229 -21,116 -39,308 -41,427 -3,225 -4,231 -42,192 z M 15828,33597 c 86,-465 150,-957 128,-979 -22,-22 -27,-8 -122,389 -41,171 -75,361 -75,424 0,62 -16,137 -35,166 -55,85 -43,-262 20,-564 76,-372 188,-833 226,-932 46,-122 -130,-1502 -193,-1512 -19,-3 -52,89 -73,205 -21,116 -56,266 -77,334 -22,67 -66,258 -98,423 -31,165 -82,387 -113,494 -41,144 -54,338 -49,758 3,311 14,591 24,623 28,89 -46,113 -91,29 -21,-40 -62,-180 -89,-310 -59,-273 -20,-798 89,-1224 35,-135 83,-358 107,-494 57,-322 161,-725 253,-980 61,-169 71,-257 55,-503 -10,-164 -4,-298 13,-298 17,0 31,24 31,53 0,73 62,66 84,-9 144,-500 303,-1622 334,-2355 29,-698 27,-862 -12,-1137 -19,-128 -15,-186 12,-186 22,0 48,40 58,89 10,48 28,131 40,185 13,53 20,439 17,857 -6,756 -11,809 -182,1709 -19,97 -50,289 -70,427 -20,138 -67,336 -105,441 -76,207 -90,543 -33,808 39,180 98,543 119,735 8,71 31,232 51,358 88,558 28,1529 -129,2098 -63,228 -117,310 -159,241 -9,-15 11,-179 44,-363 z m 381,309 c -8,-24 17,-123 55,-220 83,-216 188,-690 226,-1024 15,-136 25,-640 21,-1120 -4,-480 7,-873 23,-873 72,0 117,1681 57,2134 -47,361 -154,857 -197,917 -14,20 -36,79 -48,133 -24,98 -110,132 -137,53 z m -2307,-622 c -62,-308 -118,-347 -119,-82 0,116 -10,150 -33,114 -62,-98 -79,-485 -41,-905 40,-437 78,-602 255,-1107 171,-485 173,-494 117,-494 -28,0 -50,28 -50,63 0,34 -22,94 -48,132 -26,38 -64,121 -86,184 -21,63 -111,226 -199,363 -89,136 -161,276 -161,310 0,35 -17,80 -37,100 -21,21 -45,99 -55,175 -24,197 -117,541 -177,657 -104,201 -152,33 -158,-555 -3,-214 -17,-452 -32,-529 l -27,-141 -4,185 c -5,215 -55,245 -87,53 -36,-219 -26,-372 49,-755 101,-510 154,-646 461,-1171 84,-144 124,-187 133,-142 7,34 -12,111 -42,170 -107,209 -198,435 -231,570 -18,75 -80,316 -138,534 -58,219 -93,406 -77,415 36,22 52,-5 85,-141 14,-58 122,-296 240,-529 354,-700 396,-792 605,-1317 437,-1101 603,-1897 642,-3076 15,-461 5,-756 -40,-1164 -84,-769 -101,-1048 -60,-1005 38,39 150,607 170,857 7,91 32,337 55,546 33,289 34,490 4,830 -37,416 -69,620 -207,1312 -29,145 -69,352 -89,459 -52,279 -360,1272 -563,1815 -43,116 -137,285 -208,376 -77,97 -163,269 -212,424 -45,143 -144,384 -219,536 -129,259 -139,301 -159,684 -14,275 -9,401 15,386 20,-12 47,-119 61,-239 13,-119 55,-274 93,-344 37,-70 68,-142 68,-160 0,-43 283,-531 516,-888 312,-479 539,-966 1040,-2238 153,-388 208,-505 229,-484 17,17 -59,289 -169,608 -20,58 -84,264 -142,458 -58,194 -142,433 -186,530 -43,97 -91,232 -106,299 -14,68 -64,208 -110,310 -47,103 -84,210 -84,238 0,29 -32,84 -71,123 -78,78 -96,184 -26,156 24,-10 97,-141 163,-290 206,-470 382,-834 438,-907 82,-106 113,-37 35,77 -66,97 -434,996 -434,1061 0,18 -32,62 -71,98 -40,36 -64,85 -55,110 10,25 -23,137 -73,249 -50,112 -96,257 -102,321 -6,64 -26,136 -43,159 -18,23 -33,99 -34,169 -1,70 -26,173 -55,229 -64,125 -126,1213 -69,1213 20,0 46,-86 60,-191 29,-233 138,-745 215,-1008 32,-107 85,-297 119,-423 53,-197 266,-819 357,-1041 16,-39 39,-132 51,-206 15,-90 66,-179 149,-262 116,-116 125,-120 106,-41 -74,310 -104,407 -133,437 -19,18 -34,75 -34,125 0,50 -15,107 -33,125 -42,43 -152,572 -127,612 10,17 1,298 -20,625 -41,627 -34,703 116,1227 38,134 94,281 124,327 44,67 45,82 6,82 -62,0 -179,-182 -297,-462 -77,-184 -97,-296 -113,-639 -10,-228 -32,-415 -47,-415 -28,0 -99,217 -123,370 -6,39 -34,158 -63,265 -85,315 -136,605 -141,799 -3,100 -15,192 -27,205 -13,12 -56,-32 -98,-99 -41,-67 -101,-250 -132,-407 z m -23,-1316 c -12,-29 -20,-20 -22,21 -1,37 7,58 19,46 11,-11 13,-42 3,-67 z m 2814,1673 c 49,-123 195,-646 195,-697 0,-29 17,-53 38,-53 23,0 31,40 20,97 -47,246 -63,484 -31,450 163,-166 373,-2130 279,-2601 -21,-106 -16,-133 26,-133 86,0 110,217 103,935 -5,459 -25,754 -63,935 -61,286 -71,340 -109,635 -24,179 -155,504 -218,539 -95,54 -224,58 -243,9 -12,-30 -10,-82 3,-116 z m -1864,-1120 c 4,-552 8,-578 170,-1199 165,-630 279,-996 323,-1037 26,-25 20,14 -108,666 -52,262 -108,580 -125,706 -18,126 -54,393 -82,594 -61,438 -51,860 28,1165 64,248 57,297 -27,169 -138,-211 -184,-480 -179,-1064 z m 2954,210 c 163,-336 252,-724 333,-1455 33,-298 76,-538 95,-537 65,2 15,882 -70,1243 -87,370 -56,411 110,142 102,-164 253,-677 335,-1138 44,-248 80,-317 137,-260 46,46 -53,665 -130,803 -31,56 -69,151 -85,212 -90,345 -185,557 -262,586 -78,30 -168,115 -407,388 l -108,124 z m -5022,-712 c -93,-249 -105,-698 -25,-909 30,-78 63,-206 74,-285 11,-78 50,-237 86,-352 36,-115 111,-357 167,-536 56,-179 116,-326 133,-326 47,0 -4,280 -120,664 -56,188 -103,391 -103,451 0,61 -23,164 -50,230 -59,142 -85,813 -42,1080 41,252 -23,243 -120,-17 z m -623,-486 c 53,-228 100,-935 63,-935 -17,0 -57,100 -90,221 -166,617 -339,1047 -435,1077 -60,19 -56,-99 9,-230 151,-302 441,-1434 441,-1721 0,-139 141,-260 209,-179 42,52 57,1134 18,1341 -27,146 44,208 74,66 12,-54 67,-281 122,-504 56,-223 111,-492 123,-597 38,-330 159,-433 159,-136 0,172 -90,712 -161,965 -28,99 -50,208 -50,243 0,34 -87,239 -193,455 -297,604 -356,652 -325,261 11,-141 27,-288 36,-327 z m -557,-53 c 13,-165 35,-625 49,-1023 17,-506 40,-755 75,-829 46,-95 51,-29 60,686 8,706 2,822 -64,1074 -108,418 -148,448 -120,92 z m -5558,-167 c -107,-74 -263,-156 -348,-181 -93,-27 -160,-70 -170,-108 -14,-51 -65,-67 -261,-81 -307,-22 -484,-129 -596,-360 -43,-88 -94,-161 -113,-161 -20,0 -131,-95 -248,-210 l -212,-211 26,-398 c 14,-219 46,-438 71,-487 24,-48 125,-155 222,-238 157,-132 288,-315 288,-402 0,-27 31,-102 196,-470 26,-59 90,-225 142,-371 104,-293 157,-392 522,-997 522,-863 558,-933 674,-1296 52,-165 125,-377 163,-472 78,-200 85,-301 23,-319 -24,-7 -143,-40 -264,-75 -261,-74 -296,-146 -61,-127 205,16 353,-69 315,-183 -14,-42 -30,-148 -36,-235 -6,-87 -22,-210 -35,-273 -47,-224 35,-334 465,-625 153,-104 542,-510 542,-567 0,-68 -112,-122 -253,-123 -174,0 -402,-79 -759,-261 -176,-89 -337,-162 -359,-162 -22,0 -40,-13 -40,-29 0,-16 -79,-66 -175,-111 -209,-98 -485,-399 -716,-779 -165,-271 -343,-644 -344,-717 0,-22 -41,-119 -91,-216 -71,-140 -86,-208 -70,-329 11,-84 28,-166 38,-183 11,-17 86,-2 168,32 82,35 261,105 396,155 136,51 398,151 582,223 298,116 376,131 705,140 590,17 869,51 1012,124 73,37 144,67 157,67 39,0 173,-296 173,-382 0,-51 -31,-90 -89,-111 -94,-36 -104,-61 -56,-137 41,-65 -78,-265 -221,-372 -140,-104 -322,-185 -481,-214 -116,-21 -387,-101 -547,-160 -39,-14 -197,-63 -353,-108 -663,-191 -1313,-681 -1729,-1303 -145,-217 -266,-360 -341,-400 -64,-34 -157,-84 -205,-111 -226,-125 -1102,-1039 -1234,-1286 -23,-43 -96,-139 -163,-213 -318,-352 -752,-1585 -813,-2311 -32,-381 -34,-742 -6,-914 16,-99 38,-384 48,-634 10,-250 36,-488 58,-529 22,-41 37,-79 33,-84 -20,-25 49,-288 105,-397 34,-67 73,-179 85,-248 20,-113 13,-130 -75,-170 -221,-101 -404,-91 -804,46 -209,71 -457,178 -552,236 -173,107 -383,130 -411,45 -22,-66 261,-351 419,-422 84,-38 187,-109 230,-159 42,-50 185,-147 317,-215 270,-141 562,-188 1061,-174 254,8 294,1 315,-56 13,-35 116,-170 229,-298 113,-129 205,-250 205,-268 0,-19 49,-101 108,-183 96,-133 119,-147 212,-126 124,27 135,-28 51,-266 -30,-83 -70,-293 -89,-468 -20,-174 -44,-329 -53,-344 -40,-65 -93,-754 -83,-1092 5,-204 7,-482 4,-618 -7,-280 27,-541 156,-1199 50,-252 95,-490 100,-529 6,-39 52,-154 102,-256 51,-102 92,-224 92,-272 0,-53 49,-136 124,-211 68,-68 123,-147 123,-177 0,-59 236,-337 286,-337 52,0 36,101 -40,258 -39,81 -113,346 -163,589 -87,412 -93,515 -105,1570 -13,1252 26,1684 238,2593 57,242 111,477 121,520 29,134 115,90 284,-146 168,-232 493,-895 457,-930 -25,-25 -302,272 -302,324 0,21 -87,124 -195,230 -138,135 -206,180 -232,153 -27,-27 -24,-63 10,-125 44,-82 346,-433 634,-737 129,-137 254,-175 288,-89 21,57 -260,724 -445,1055 -73,131 -196,288 -273,350 -160,129 -166,166 -67,458 39,118 87,295 106,393 36,191 303,770 411,892 124,141 251,202 370,178 136,-27 456,-242 553,-370 38,-51 144,-193 236,-316 92,-123 192,-233 223,-245 74,-27 127,-96 222,-290 43,-87 147,-260 232,-385 85,-124 203,-323 262,-441 59,-118 127,-238 152,-267 24,-30 104,-220 178,-424 73,-204 160,-434 193,-511 34,-78 81,-253 105,-388 24,-136 59,-319 78,-406 19,-87 49,-262 68,-388 19,-126 51,-333 72,-459 24,-146 26,-274 5,-353 -33,-124 -29,-959 4,-1046 10,-26 41,-47 69,-47 74,0 360,903 396,1252 61,604 7,1318 -142,1870 -53,194 -126,467 -162,606 -36,139 -99,321 -140,405 -41,84 -107,246 -146,361 -82,242 -264,583 -478,897 -84,122 -153,235 -153,250 0,15 -31,56 -70,91 -39,36 -71,84 -71,108 0,24 -47,95 -106,157 -58,62 -105,124 -105,138 0,37 -218,236 -309,282 -99,51 -101,122 -7,254 127,178 307,106 508,-205 81,-123 95,-178 84,-335 -9,-148 -1,-187 41,-187 32,0 66,52 85,129 25,103 16,168 -46,322 -98,239 -249,385 -489,468 -198,70 -226,114 -114,184 38,24 70,68 70,97 0,31 33,52 80,52 45,0 207,73 362,162 155,88 337,190 405,225 68,35 186,97 263,139 77,41 175,74 219,74 103,0 250,68 272,125 10,25 5,91 -9,146 -38,141 -224,200 -622,199 -338,-1 -620,-47 -935,-152 -106,-35 -273,-75 -370,-87 -97,-13 -244,-48 -327,-79 -148,-55 -156,-54 -344,38 -116,57 -195,119 -198,155 -2,34 -9,140 -15,237 -14,213 -76,571 -141,812 -26,97 -56,271 -68,388 -20,210 -20,211 42,125 35,-47 127,-151 204,-231 78,-80 185,-202 238,-272 70,-94 114,-123 167,-109 90,23 91,94 4,236 -174,284 -234,1652 -95,2156 114,410 310,838 500,1090 104,138 214,271 244,296 164,138 983,541 1588,780 252,100 501,213 554,251 52,38 179,107 282,153 172,76 560,361 706,516 33,36 179,154 324,264 146,109 298,253 339,318 81,131 87,134 428,195 193,34 269,32 441,-12 114,-29 286,-64 383,-78 329,-47 444,-146 521,-442 57,-217 38,-459 -57,-758 -30,-96 -93,-294 -140,-439 -46,-146 -87,-360 -90,-476 -3,-117 -21,-537 -39,-934 -35,-780 -12,-1186 107,-1871 89,-516 128,-666 254,-970 56,-136 154,-399 218,-584 144,-413 215,-555 417,-829 239,-324 428,-510 519,-510 74,0 80,13 64,150 -9,83 -67,231 -128,331 -61,99 -111,199 -111,222 0,23 -62,211 -138,419 -75,208 -165,473 -198,589 -34,117 -78,232 -97,257 -19,24 -40,127 -45,229 -16,278 -87,841 -123,961 -81,278 16,1612 143,1975 41,117 83,244 93,282 10,39 108,212 218,384 161,253 234,333 376,413 278,158 595,117 852,-108 66,-58 182,-137 257,-176 75,-38 234,-169 352,-291 228,-234 837,-1112 874,-1259 12,-48 58,-140 102,-204 44,-65 91,-184 104,-266 14,-81 61,-243 105,-361 68,-180 172,-615 244,-1022 10,-57 36,-189 58,-293 67,-326 59,-1850 -13,-2514 -35,-320 -81,-635 -101,-699 -45,-144 -17,-179 76,-95 69,62 71,62 71,-12 0,-42 16,-76 35,-76 50,0 228,370 298,618 32,116 96,314 141,441 127,352 198,905 200,1556 3,707 -93,1973 -163,2165 -28,78 -66,213 -85,300 -84,404 -187,724 -301,940 -69,129 -125,250 -125,269 0,19 -56,110 -123,202 -131,178 -145,212 -90,212 60,0 502,-229 807,-418 161,-100 304,-182 317,-182 25,0 168,-107 588,-438 136,-107 344,-270 462,-363 119,-93 356,-301 527,-463 l 311,-295 -65,-121 c -47,-86 -54,-132 -27,-159 27,-27 55,-12 98,54 71,109 122,116 198,27 31,-36 87,-87 124,-115 113,-82 586,-641 777,-919 99,-142 246,-390 327,-549 81,-160 162,-300 181,-311 18,-12 33,-49 33,-83 0,-34 71,-201 158,-372 169,-331 337,-816 408,-1175 63,-324 25,-1200 -63,-1473 -122,-376 -399,-1050 -564,-1376 -89,-175 -189,-373 -224,-441 -362,-716 -561,-1409 -631,-2197 -25,-287 -19,-401 36,-673 91,-442 176,-699 345,-1035 178,-354 307,-512 407,-498 63,9 74,33 70,152 -2,78 -47,268 -99,423 -163,487 -196,606 -198,728 -2,65 -14,148 -28,183 -33,84 13,611 82,924 29,136 59,278 66,317 7,39 22,95 35,124 12,29 60,172 107,317 46,146 206,506 353,802 148,295 269,551 269,569 0,17 22,50 50,73 27,22 60,84 73,136 13,53 45,120 71,149 90,102 443,804 526,1047 46,135 94,325 107,421 28,205 72,294 120,242 18,-19 95,-154 172,-299 76,-146 156,-297 176,-335 21,-39 100,-206 177,-371 77,-165 196,-419 265,-564 69,-146 145,-336 168,-423 23,-88 102,-310 176,-494 540,-1345 708,-2038 818,-3369 33,-411 30,-642 -20,-1376 -74,-1104 -76,-1117 -181,-1794 -94,-600 -104,-728 -58,-728 49,0 118,182 147,388 15,106 54,320 85,475 32,155 58,393 59,529 1,136 26,372 56,523 30,152 45,309 35,350 -11,40 -4,154 16,253 63,320 40,1821 -29,1938 -10,16 -24,127 -33,247 -8,120 -32,281 -54,359 -21,77 -66,276 -100,441 -34,165 -79,347 -99,405 -20,59 -56,194 -78,300 -52,244 -125,468 -197,608 -55,106 -275,701 -401,1086 -81,249 -205,520 -249,547 -19,12 -34,52 -34,90 0,38 -39,102 -86,143 -51,45 -95,132 -110,219 -31,184 -131,417 -205,478 -32,27 -58,61 -58,78 0,16 -79,194 -176,396 -127,264 -176,409 -176,517 0,160 -127,750 -184,860 -65,124 -104,9 -59,-174 23,-96 42,-388 41,-650 -1,-440 -11,-510 -129,-924 -132,-464 -308,-879 -529,-1245 -71,-117 -128,-231 -128,-255 0,-23 -48,-118 -106,-210 -58,-91 -106,-190 -106,-218 0,-29 -22,-78 -49,-108 -74,-84 -405,-754 -481,-975 -36,-107 -116,-420 -177,-696 -115,-526 -135,-854 -69,-1172 20,-97 51,-266 68,-376 27,-168 167,-676 237,-859 11,-29 2,-52 -21,-52 -23,0 -72,75 -111,167 -38,92 -100,231 -137,309 -138,291 -197,489 -316,1048 -70,334 78,1221 312,1862 131,358 108,307 437,988 349,723 394,821 503,1111 244,648 271,786 266,1353 -6,609 -49,899 -195,1311 -66,184 -147,414 -180,511 -34,97 -78,208 -99,247 -20,39 -131,253 -245,476 -405,789 -595,1035 -1472,1909 -523,520 -876,842 -1018,928 -119,73 -216,144 -216,159 0,16 -72,73 -159,128 -87,55 -159,111 -159,124 0,13 -88,78 -195,143 -108,66 -310,193 -450,283 -384,248 -865,492 -990,503 -62,6 -147,29 -189,51 -106,57 -220,51 -244,-13 -12,-30 20,-103 73,-167 387,-472 620,-974 823,-1772 181,-714 238,-1270 237,-2329 -1,-877 -22,-1036 -230,-1711 -56,-184 -119,-399 -138,-477 -20,-78 -61,-173 -91,-212 -55,-68 -55,-68 -37,2 11,38 45,300 77,582 61,543 96,2395 47,2522 -15,39 -53,213 -86,388 -69,370 -62,341 -157,706 -143,548 -257,885 -394,1164 -215,438 -541,947 -643,1005 -52,29 -94,67 -94,84 0,59 -461,547 -539,572 -43,13 -124,62 -180,109 -208,174 -447,268 -691,271 -217,2 -244,-7 -477,-161 -136,-90 -296,-216 -356,-281 -115,-124 -282,-494 -397,-876 -140,-470 -182,-1741 -79,-2377 29,-181 29,-255 -1,-291 -31,-37 -28,-48 14,-48 37,0 62,-49 78,-150 24,-155 180,-746 308,-1164 66,-218 168,-385 168,-276 0,23 16,32 36,20 55,-34 41,-82 -26,-95 -151,-29 -596,814 -609,1153 -1,39 -33,134 -71,212 -37,77 -69,183 -69,234 -1,50 -27,154 -59,229 -32,75 -64,183 -71,239 -7,57 -39,248 -70,424 -50,274 -93,724 -87,902 34,967 109,1737 194,1991 27,79 60,231 74,337 14,107 48,237 75,290 29,57 48,204 48,370 -1,326 -83,543 -235,622 -55,29 -135,93 -178,143 -43,50 -115,97 -159,105 -418,78 -530,93 -673,93 -124,0 -166,14 -166,53 0,29 -54,105 -120,168 -66,63 -161,206 -210,317 -53,122 -111,203 -144,203 -68,0 -68,-16 1,-321 59,-257 58,-265 -56,-437 -38,-59 -84,-139 -101,-178 -18,-40 -110,-135 -204,-212 -94,-76 -250,-216 -347,-311 -97,-95 -261,-226 -363,-292 -103,-66 -196,-142 -206,-171 -11,-28 -54,-61 -96,-74 -42,-13 -179,-70 -305,-127 -127,-57 -262,-117 -300,-133 -39,-17 -190,-86 -335,-153 -146,-68 -321,-143 -389,-167 -432,-155 -1524,-744 -1723,-930 -101,-94 -325,-387 -446,-582 -19,-31 -70,-100 -112,-153 -42,-54 -103,-188 -136,-299 -32,-112 -91,-267 -132,-345 -62,-121 -75,-223 -88,-706 -18,-653 39,-1607 113,-1888 28,-106 58,-297 67,-423 10,-126 48,-301 86,-388 64,-146 86,-164 279,-224 l 209,-66 362,91 c 199,50 377,101 396,113 19,12 56,4 82,-18 36,-30 51,-23 64,27 15,55 74,74 333,107 539,69 900,41 922,-72 8,-43 -34,-67 -165,-95 -96,-21 -268,-84 -381,-141 -113,-57 -307,-145 -430,-194 -279,-113 -576,-362 -680,-572 -79,-156 -79,-161 -16,-278 35,-65 55,-134 43,-152 -25,-40 138,-291 311,-480 69,-75 125,-148 125,-162 0,-14 34,-55 75,-92 40,-37 105,-128 142,-201 38,-74 107,-148 153,-166 57,-22 97,-77 122,-166 20,-74 93,-221 163,-327 171,-260 213,-347 242,-505 13,-74 70,-222 125,-329 56,-107 120,-277 144,-378 23,-100 71,-270 106,-378 210,-638 288,-1388 208,-2010 -21,-164 -50,-390 -63,-502 -14,-111 -45,-221 -69,-245 -33,-34 -42,65 -42,457 0,274 -15,535 -33,580 -17,44 -51,200 -74,345 -104,640 -259,1293 -361,1517 -48,107 -132,306 -185,441 -54,136 -117,271 -142,300 -24,29 -87,140 -140,247 -53,107 -116,218 -140,247 -25,29 -98,156 -163,282 -65,126 -151,263 -190,304 -39,40 -143,167 -230,282 -214,280 -657,711 -811,789 -292,148 -550,115 -751,-96 -120,-125 -405,-761 -434,-969 -12,-83 -55,-238 -94,-345 -39,-107 -100,-321 -133,-476 -34,-155 -95,-417 -135,-582 -143,-587 -183,-796 -183,-964 1,-93 -18,-205 -41,-247 -36,-66 -56,-595 -68,-1770 -3,-333 66,-1049 113,-1174 18,-46 23,-99 12,-117 -27,-44 -106,39 -139,146 -14,47 -38,102 -53,122 -27,35 -77,260 -136,617 -18,107 -49,242 -70,300 -148,425 -150,2272 -2,2716 19,58 50,209 67,335 18,127 65,365 105,530 40,164 120,538 178,829 180,903 212,1052 268,1252 74,266 111,476 170,970 28,233 61,511 74,617 21,176 -16,520 -127,1182 -51,307 -79,601 -54,578 13,-12 90,-153 172,-314 150,-293 312,-467 377,-403 34,34 7,304 -79,809 -66,388 -53,1309 20,1478 33,75 60,183 60,240 0,56 31,162 69,233 39,72 98,210 132,307 157,444 873,1275 1259,1462 156,76 712,212 871,213 49,1 121,24 158,53 60,45 62,57 16,88 -29,19 -95,35 -146,36 -51,0 -113,25 -139,56 -36,43 -83,51 -207,34 -430,-61 -772,-264 -1206,-717 -515,-539 -830,-1096 -1001,-1774 -71,-277 -88,-432 -87,-780 0,-405 35,-854 91,-1167 19,-111 14,-130 -31,-113 -30,12 -65,78 -78,147 -13,70 -44,160 -69,201 -25,41 -72,201 -104,356 -33,155 -75,331 -93,390 -46,147 -47,923 -1,1074 20,68 37,177 37,242 0,164 189,711 342,990 269,491 398,648 752,917 87,67 175,143 195,170 35,48 187,146 447,290 141,78 589,230 1104,376 467,132 759,298 940,532 175,227 226,320 259,467 27,123 70,138 121,43 40,-75 211,-196 239,-169 10,10 -45,95 -123,188 -77,94 -165,218 -196,276 -30,58 -103,157 -163,220 -154,160 -158,371 -11,561 171,220 266,504 238,706 -13,94 -46,206 -73,249 -27,43 -54,110 -60,148 -6,39 -75,147 -154,240 -78,93 -154,205 -168,248 -14,44 -40,79 -59,79 -19,0 -149,118 -289,261 -140,143 -318,293 -395,332 -173,87 -339,256 -340,346 -4,182 42,551 75,614 43,80 20,141 -53,141 -27,0 -59,17 -73,39 -16,26 1,31 54,14 135,-43 275,147 183,248 -17,19 -49,128 -71,243 -22,115 -119,374 -216,574 -97,201 -177,385 -177,410 0,25 -14,60 -32,79 -17,18 -75,113 -128,210 -54,97 -142,228 -198,292 -55,64 -100,137 -100,162 0,25 -33,75 -72,111 -40,36 -119,162 -177,279 -58,118 -144,282 -193,365 -48,83 -88,178 -88,211 0,34 -39,141 -87,238 -48,97 -87,195 -88,218 0,24 -56,169 -124,324 -68,154 -124,297 -124,317 0,59 241,111 341,73 48,-18 146,-33 217,-33 72,0 182,-32 246,-71 147,-90 257,-89 374,4 149,117 209,266 187,459 -33,274 -138,439 -339,531 -136,62 -178,101 -194,182 -11,56 -11,116 0,134 26,42 182,40 209,-4 39,-63 123,-37 123,37 0,110 -61,203 -169,259 -83,43 -115,43 -237,-2 -77,-29 -166,-60 -198,-70 -86,-28 -149,-170 -122,-278 14,-53 87,-193 165,-312 77,-118 150,-276 161,-350 25,-152 111,-169 171,-34 44,102 91,100 207,-7 103,-96 114,-140 49,-195 -238,-201 -241,-202 -375,-128 -149,82 -534,865 -534,1085 0,52 -19,103 -44,113 -39,15 114,175 424,445 79,69 111,248 44,248 -20,0 -35,14 -35,31 0,61 451,147 661,127 418,-40 581,-129 997,-548 335,-338 538,-466 767,-485 136,-11 221,1 303,46 106,57 125,57 281,4 210,-71 248,-71 465,6 158,55 187,82 270,253 114,232 142,387 99,537 -23,80 -20,121 9,139 29,19 12,69 -58,170 -109,157 -183,190 -146,64 114,-389 78,-780 -79,-859 -44,-22 -115,-72 -158,-112 -110,-103 -393,-72 -589,64 -49,33 -139,71 -200,85 -89,19 -115,45 -132,137 -12,62 -63,192 -115,289 -210,395 -361,512 -776,599 -125,26 -247,63 -270,81 -45,36 -200,72 -430,99 -121,15 -169,-2 -335,-118 z m 842,-176 c 65,-29 200,-63 300,-77 99,-13 224,-53 277,-88 88,-58 274,-384 274,-481 0,-79 224,-413 314,-467 l 91,-56 -102,-39 c -123,-46 -144,-40 -403,131 -300,199 -333,228 -469,408 -40,54 -163,165 -273,245 -109,80 -240,190 -290,243 -67,71 -141,104 -275,121 -207,28 -221,81 -36,146 155,54 252,55 374,5 55,-22 153,-63 218,-91 z m 974,-9782 c -11,-36 -52,-76 -91,-88 -38,-13 -112,-86 -163,-164 -81,-122 -93,-174 -88,-395 l 5,-253 -223,-64 c -141,-41 -387,-70 -677,-79 -251,-9 -487,-24 -526,-35 -210,-56 -1103,-342 -1155,-370 -61,-33 -168,-45 -168,-20 0,21 102,313 137,393 17,39 51,137 76,219 41,139 318,514 549,745 56,56 165,168 241,248 175,185 366,297 637,374 197,55 288,93 786,322 103,47 196,110 208,140 39,102 123,33 259,-214 137,-249 234,-630 193,-759 z M 3655,16126 c -23,-44 -149,-199 -280,-344 -130,-146 -269,-328 -308,-406 -354,-709 -394,-852 -420,-1501 -16,-435 -11,-494 56,-642 41,-90 74,-173 74,-185 0,-22 107,-266 198,-455 27,-57 49,-117 49,-134 0,-40 375,-583 489,-707 49,-54 109,-97 134,-97 75,0 114,-119 93,-285 -39,-308 -120,-354 -281,-160 -55,66 -234,227 -399,358 -165,131 -313,260 -328,286 -63,105 -320,385 -382,414 -37,18 -67,66 -67,106 -1,119 -58,189 -111,135 -44,-44 -50,-651 -7,-721 11,-18 48,-162 82,-321 98,-458 244,-986 299,-1084 93,-166 160,-401 124,-437 -54,-54 -39,-91 37,-91 46,0 127,-76 229,-215 88,-119 159,-227 159,-242 0,-44 129,-178 172,-178 77,0 36,91 -157,352 -180,242 -191,267 -134,309 34,25 103,45 152,45 50,0 137,25 194,54 118,62 196,46 196,-39 0,-32 -24,-171 -54,-310 -30,-138 -72,-331 -93,-428 -43,-196 -121,-371 -167,-371 -51,0 -654,699 -692,802 -20,54 -83,147 -141,207 -147,153 -482,799 -552,1068 -107,407 -178,1243 -152,1786 32,664 95,1056 240,1499 117,357 424,1057 480,1094 15,10 123,153 240,319 312,440 1244,1352 1244,1216 0,-48 -180,-630 -216,-697 z m 1895,203 c -172,-262 -381,-1140 -383,-1607 -1,-241 54,-608 133,-880 25,-88 56,-230 68,-318 l 23,-159 -159,177 c -422,470 -471,1289 -133,2240 93,262 174,403 342,590 105,119 144,144 153,100 6,-32 -13,-97 -44,-143 z m -1906,-649 c -11,-18 -27,-196 -37,-397 -10,-201 -26,-422 -37,-490 -11,-69 3,-243 31,-388 28,-145 54,-350 57,-455 3,-106 13,-204 21,-218 18,-28 50,-276 67,-508 6,-77 32,-284 58,-458 62,-407 49,-863 -25,-935 -49,-47 -66,-40 -159,70 -133,157 -419,578 -419,617 0,16 -38,110 -84,209 -267,570 -320,807 -292,1300 23,415 127,782 305,1084 54,92 108,198 120,237 34,106 284,363 353,363 33,0 52,-14 41,-31 z m 8929,-3221 c -11,-28 -19,-19 -21,22 -2,37 7,58 18,46 12,-12 13,-42 3,-68 z m -9995,-566 c 89,-102 229,-261 310,-353 80,-92 166,-168 191,-168 58,0 94,-97 46,-126 -43,-27 29,-84 107,-85 41,0 41,9 0,58 -45,54 -41,54 58,3 59,-30 129,-97 156,-147 44,-82 42,-97 -19,-145 -170,-135 -435,-292 -592,-352 -166,-63 -174,-63 -219,-1 -26,35 -65,153 -86,262 -22,109 -54,246 -72,304 -32,101 -91,464 -129,785 -24,207 44,197 249,-35 z m 10253,-194 c -22,82 -47,181 -57,220 -10,39 31,-13 92,-116 60,-102 100,-201 88,-220 -43,-70 -86,-30 -123,116 z M 3589,10408 c -36,-121 -66,-147 -293,-252 -408,-189 -435,-189 -525,-4 -63,131 -68,167 -31,213 26,30 74,55 108,55 77,0 550,230 583,284 13,21 58,51 100,67 67,25 77,14 87,-100 6,-70 -6,-189 -29,-263 z m -2361,-376 c 184,-41 272,-38 601,19 112,20 136,11 198,-78 183,-261 195,-250 -247,-242 -418,8 -822,106 -882,214 -16,28 -45,51 -65,51 -20,0 -105,48 -190,106 -84,59 -167,106 -183,106 -46,0 -293,212 -293,252 0,19 12,28 26,20 15,-7 209,-102 433,-209 223,-108 494,-216 602,-239 z M 3060,8850 c 24,-30 28,-53 8,-53 -19,0 -55,24 -79,53 -24,29 -28,53 -9,53 20,0 56,-24 80,-53 z m 7827,22402 c 75,-201 187,-813 201,-1095 17,-341 76,-713 118,-739 43,-26 20,1127 -24,1205 -52,91 -60,218 -11,168 124,-128 335,-982 313,-1269 -13,-171 43,-217 86,-70 42,145 1,738 -62,890 -29,68 -52,159 -52,201 0,42 -14,92 -30,110 -16,19 -66,121 -110,228 -83,201 -280,530 -316,527 -11,0 -44,-28 -74,-61 -29,-32 -46,-75 -39,-95 z m -841,-185 c 77,-150 140,-301 140,-337 0,-35 31,-126 70,-202 39,-76 71,-161 71,-189 0,-82 118,-202 168,-170 35,22 30,70 -23,223 -37,107 -83,225 -103,262 -19,38 -73,156 -119,265 -86,203 -245,420 -307,420 -20,0 27,-122 103,-272 z m 296,22 c 191,-245 477,-872 531,-1161 69,-373 213,-740 411,-1048 288,-448 418,-735 418,-921 1,-107 14,-149 45,-138 144,50 -69,625 -429,1155 -221,324 -292,505 -324,821 -28,275 -182,807 -263,907 -24,29 -71,109 -105,177 -34,68 -127,191 -207,273 -140,146 -198,181 -198,120 0,-16 54,-99 121,-185 z m -946,116 c -10,-16 39,-75 108,-132 134,-112 248,-312 344,-607 46,-138 78,-185 129,-185 97,0 90,202 -13,376 -197,331 -246,398 -305,417 -35,11 -92,51 -127,90 -67,74 -108,87 -136,41 z m 9589,-306 c 12,-67 37,-251 55,-407 33,-288 52,-352 104,-352 71,0 63,217 -18,472 -47,149 -86,302 -86,341 0,38 -18,69 -39,69 -26,0 -31,-43 -16,-123 z m -9624,-362 c 7,-278 9,-283 67,-205 61,79 68,242 16,339 -63,117 -88,76 -83,-134 z m 10067,-465 c 21,-39 36,-33 69,28 32,62 29,118 -15,271 -58,200 -70,217 -108,155 -26,-42 14,-380 54,-454 z m 272,200 c -114,-133 -156,-262 -101,-317 27,-27 53,-25 93,8 48,39 52,36 31,-21 -87,-234 -195,-335 -445,-415 -95,-31 -76,-128 24,-128 302,0 486,253 532,732 14,141 11,256 -5,255 -17,0 -75,-51 -129,-114 z m 1017,-489 c 116,-328 114,-1202 -3,-1491 -20,-48 -14,-62 21,-51 56,19 126,271 158,573 26,240 -30,825 -98,1029 -40,120 -132,210 -132,128 0,-19 24,-103 54,-188 z m -6966,13 c -2,-24 39,-182 89,-352 277,-937 427,-1695 470,-2370 15,-237 35,-337 69,-349 40,-13 44,66 23,474 -30,588 -37,670 -84,965 -45,286 -203,876 -248,931 -19,23 -59,114 -89,202 -76,222 -228,552 -230,499 z m 13332,-670 c 0,-20 25,-105 54,-189 78,-221 106,-628 53,-787 -48,-147 -29,-194 51,-128 64,53 72,454 15,707 -20,87 -45,202 -55,254 -19,94 -118,213 -118,143 z m -301,-860 c -17,1 -56,124 -85,274 -33,162 -75,278 -104,288 -39,12 -42,-6 -18,-86 17,-56 32,-255 32,-442 0,-188 11,-352 24,-365 63,-63 176,38 281,252 124,252 164,520 107,718 -35,122 -35,121 -40,-70 -4,-194 -135,-571 -197,-569 z m -16268,23 c 141,-100 145,-101 85,-18 -106,147 -214,397 -235,543 -24,169 -91,202 -119,60 -41,-203 69,-444 269,-585 z m 14611,428 c 58,-138 71,-505 21,-584 -17,-26 -48,-37 -70,-24 -25,15 -76,-53 -137,-181 -54,-114 -134,-243 -179,-288 -46,-45 -132,-188 -192,-316 -90,-192 -112,-291 -124,-544 -17,-343 39,-430 79,-124 31,232 502,1213 594,1238 143,39 204,379 129,727 -39,182 -170,395 -172,280 -1,-32 22,-115 51,-184 z m 1237,-583 c -27,-139 -24,-152 36,-141 103,20 162,335 104,556 -84,318 -117,323 -114,19 2,-154 -10,-349 -26,-434 z m -15737,-183 140,-84 -146,146 c -80,80 -176,162 -212,181 -36,20 -128,156 -204,303 -142,276 -229,341 -229,170 0,-218 218,-457 651,-716 z m 1100,609 c 134,-268 263,-612 301,-801 20,-97 48,-193 64,-212 15,-19 41,-107 56,-194 15,-87 34,-132 41,-99 17,75 -142,791 -236,1065 -58,170 -202,453 -225,442 -3,-1 -24,-10 -45,-19 -26,-11 -12,-72 44,-182 z m 13805,-572 c -13,0 -26,100 -28,223 -3,223 -51,412 -102,412 -30,0 -39,-657 -10,-676 126,-85 180,-97 262,-60 158,72 241,435 175,767 -33,161 -84,134 -84,-44 0,-202 -144,-622 -213,-622 z m 601,533 c 0,-138 -24,-209 -120,-351 -66,-98 -111,-187 -100,-198 45,-45 146,-13 233,74 78,78 93,123 92,291 0,109 -10,233 -22,277 -37,138 -83,86 -83,-93 z m -12649,-596 c 31,-120 55,-358 55,-551 0,-209 14,-339 36,-339 74,0 79,126 23,627 -54,489 -100,655 -148,530 -12,-30 4,-150 34,-267 z m -2300,-11 c 418,-330 579,-512 784,-886 350,-639 538,-1494 550,-2497 5,-394 64,-735 122,-706 19,10 32,58 29,106 -4,49 -5,215 -4,370 5,562 -14,1168 -42,1306 -69,344 -266,994 -321,1058 -85,99 -174,284 -174,362 0,35 -64,127 -141,202 -78,76 -141,158 -141,181 0,69 -455,507 -525,507 -35,0 -94,34 -131,74 -86,95 -191,153 -191,105 0,-20 83,-102 185,-182 z m 4189,69 c 0,-21 32,-176 70,-343 192,-841 190,-2020 -3,-3003 -41,-204 -103,-442 -138,-530 -36,-87 -99,-317 -141,-511 -71,-332 -138,-598 -214,-849 -18,-60 -32,-155 -31,-212 1,-142 53,-46 87,161 14,88 48,202 75,254 26,53 48,131 48,174 0,43 27,107 59,143 59,65 106,185 295,752 152,455 219,990 218,1746 -1,233 6,277 31,194 90,-296 14,-1621 -110,-1922 -35,-87 -99,-278 -141,-423 -84,-290 -106,-345 -299,-753 -124,-264 -141,-401 -29,-253 102,137 328,639 420,935 52,165 116,343 142,395 49,95 90,322 158,875 57,468 -70,1559 -284,2434 -17,68 -40,195 -53,282 -38,275 -95,494 -128,494 -17,0 -32,-18 -32,-40 z m 14874,-478 c -12,-13 -24,-95 -25,-184 -5,-212 -84,-532 -115,-462 -12,29 -45,116 -73,194 l -51,141 -3,-136 c -1,-75 23,-233 54,-353 54,-206 53,-425 -3,-560 -18,-44 -9,-62 31,-62 32,0 59,20 61,44 3,24 14,-2 27,-59 12,-56 42,-109 66,-117 56,-19 58,135 5,383 -29,133 -29,235 -2,364 20,98 47,262 60,364 13,102 37,185 54,185 37,0 128,-308 155,-529 11,-87 26,-355 35,-595 9,-240 23,-444 33,-453 9,-10 34,-7 55,6 48,30 48,863 0,1073 -40,172 -25,212 52,148 97,-81 187,-488 244,-1096 48,-517 117,-577 102,-88 -22,686 -267,1427 -472,1429 -54,0 -206,219 -206,297 0,59 -50,99 -83,66 z M 18471,26102 c -17,-18 -31,-102 -31,-187 0,-153 -52,-304 -256,-749 -58,-126 -127,-292 -155,-369 -86,-244 -233,-520 -469,-884 -261,-401 -305,-446 -417,-428 -62,10 -95,-13 -138,-97 -67,-129 -176,-289 -273,-401 -51,-59 -58,-90 -29,-120 29,-29 67,6 146,133 148,238 177,267 248,244 126,-40 534,513 961,1299 520,958 519,956 540,1308 11,177 35,378 54,445 20,67 35,232 35,367 0,292 -73,831 -112,831 -15,0 -18,-144 -5,-320 23,-323 -40,-1006 -99,-1072 z m -1005,-636 c -129,-772 -440,-1589 -841,-2205 -181,-279 -336,-580 -336,-654 0,-9 15,-17 34,-17 20,0 90,109 157,242 67,133 160,288 206,344 168,202 373,630 590,1231 121,334 216,711 281,1111 24,146 61,352 82,459 51,257 48,980 -5,1032 -30,30 -40,-56 -40,-339 0,-370 -19,-551 -128,-1204 z m 2027,26 c -61,-122 -102,-230 -92,-241 33,-33 175,195 225,363 27,89 63,179 79,201 63,79 132,832 77,832 -20,0 -37,-67 -37,-150 -1,-245 -132,-769 -252,-1005 z m -6114,764 c -22,-307 -86,-669 -143,-817 -18,-46 -6,-62 44,-62 48,0 82,40 112,133 59,177 94,932 48,1015 -27,48 -42,-17 -61,-269 z m 3775,100 c -8,-24 -49,-274 -91,-555 -113,-758 -305,-1486 -520,-1979 -112,-256 -414,-659 -1060,-1412 -78,-91 -100,-137 -66,-137 105,0 1005,1048 1157,1348 100,195 307,781 371,1048 140,585 168,764 242,1564 15,159 -2,220 -33,123 z m 1837,-12 c -13,-33 -15,-67 -5,-77 9,-10 27,9 40,42 13,32 15,67 5,77 -10,10 -28,-9 -40,-42 z m -428,-1538 c -33,-64 -83,-159 -110,-210 -27,-51 -73,-112 -101,-136 -29,-24 -43,-58 -32,-76 28,-45 105,24 224,198 171,250 486,1274 453,1473 -9,53 -30,7 -60,-130 -57,-260 -291,-960 -374,-1119 z m -1831,1109 c -72,-407 -361,-1445 -522,-1878 -41,-110 -177,-368 -390,-741 -39,-68 -100,-176 -137,-240 -63,-112 -466,-654 -641,-865 -74,-89 -98,-97 -221,-75 -76,14 -153,37 -173,52 -19,15 -103,46 -185,68 -87,23 -150,61 -150,90 0,61 -265,182 -539,246 -112,26 -263,83 -335,126 -242,144 -750,129 -808,-24 -27,-71 86,-165 163,-135 95,36 564,85 619,64 29,-11 53,-56 53,-101 0,-103 38,-115 423,-145 273,-20 318,-33 318,-87 0,-83 133,-183 342,-258 392,-139 619,-309 625,-467 3,-82 48,-130 259,-277 237,-164 560,-489 852,-860 93,-118 110,-159 73,-182 -52,-32 34,-164 259,-396 141,-144 342,-428 342,-481 0,-21 -24,-28 -53,-17 -61,24 -75,-75 -15,-112 93,-58 526,-697 526,-777 0,-13 -35,-13 -79,0 -44,14 -135,33 -203,44 -159,25 -185,39 -458,260 -127,101 -309,223 -406,270 -97,47 -256,132 -353,189 -341,199 -598,314 -792,353 -107,23 -243,62 -301,88 -59,26 -194,86 -300,134 -144,64 -249,86 -406,82 -158,-4 -251,15 -363,74 -83,43 -181,78 -218,78 -37,0 -77,16 -89,36 -12,19 -92,35 -177,35 -85,0 -164,15 -175,34 -12,19 -88,52 -170,74 -158,43 -431,275 -487,415 -23,58 -51,75 -99,60 -63,-20 -62,-13 9,130 103,205 100,610 -5,849 -86,193 -107,208 -86,61 22,-144 -12,-133 -96,31 -175,343 -891,826 -882,596 3,-75 111,-256 293,-489 165,-212 171,-228 152,-393 -12,-96 -86,-306 -168,-471 -133,-270 -145,-317 -126,-479 24,-204 135,-414 158,-300 7,36 -4,83 -25,104 -52,52 -49,280 4,402 24,55 94,186 155,293 188,330 195,616 20,801 -51,54 -128,150 -172,213 -70,102 -72,115 -18,115 76,0 458,-364 556,-530 40,-68 98,-121 129,-118 32,2 65,-26 75,-62 12,-48 -2,-66 -50,-66 -59,0 -68,-28 -69,-203 -1,-112 -24,-243 -52,-291 -102,-180 -56,-637 96,-943 165,-333 305,-317 151,17 -96,210 -157,538 -100,538 18,0 59,-44 91,-97 139,-232 256,-329 503,-414 135,-47 252,-105 260,-128 10,-29 -7,-34 -52,-15 -221,90 -543,147 -543,95 0,-105 826,-429 1095,-429 78,0 202,-29 274,-66 72,-36 270,-108 440,-161 369,-114 919,-364 1148,-522 174,-120 708,-450 729,-450 26,0 1107,-760 1323,-931 127,-99 373,-307 547,-463 175,-155 373,-324 441,-374 399,-298 1722,-1746 1809,-1981 13,-34 44,-62 69,-62 24,-1 85,-54 133,-119 49,-65 211,-279 362,-476 150,-198 273,-369 273,-381 0,-12 66,-109 146,-215 204,-271 560,-806 560,-843 0,-17 56,-118 125,-224 70,-106 175,-288 234,-403 59,-116 149,-275 200,-353 82,-125 200,-331 460,-799 39,-71 206,-323 372,-562 166,-239 302,-453 302,-475 0,-22 45,-83 100,-135 89,-85 139,-100 450,-127 389,-34 406,-40 939,-328 418,-226 566,-252 758,-135 236,144 280,445 125,840 -40,102 -66,185 -58,185 8,0 -10,59 -40,132 -35,83 -57,250 -60,450 -5,364 19,425 281,714 188,207 446,327 706,327 201,0 191,-60 -15,-91 -251,-38 -535,-182 -614,-310 -142,-233 -74,-573 309,-1557 88,-226 105,-693 31,-849 -140,-294 -467,-555 -754,-601 -172,-27 -289,-5 -1082,202 -78,20 -176,53 -218,74 -80,38 -244,12 -320,-50 -29,-24 -44,-135 -44,-317 0,-396 72,-521 635,-1105 362,-374 841,-1014 1083,-1446 166,-297 470,-953 629,-1359 123,-314 416,-902 528,-1060 62,-89 141,-218 174,-288 80,-168 441,-536 612,-623 123,-63 301,-132 695,-269 78,-26 221,-56 318,-65 97,-9 237,-47 311,-84 118,-59 128,-73 79,-113 -37,-32 -110,-40 -223,-25 -92,11 -286,35 -432,53 -276,35 -827,218 -895,298 -22,25 -155,132 -295,236 -141,105 -256,201 -256,213 0,13 -40,69 -88,126 -49,56 -113,153 -142,215 -30,62 -90,158 -134,212 -45,54 -142,225 -216,381 -75,155 -173,331 -219,391 -46,60 -83,121 -83,134 0,14 -71,175 -159,359 -87,183 -158,354 -158,381 0,26 -40,106 -89,178 -48,71 -88,149 -88,172 0,51 -333,410 -592,637 -163,144 -206,164 -346,164 -214,0 -320,-111 -347,-364 -11,-100 -26,-786 -34,-1523 -15,-1426 -60,-1919 -232,-2505 -39,-136 -89,-321 -109,-412 -44,-191 -324,-755 -372,-746 -17,3 -53,11 -79,18 -26,6 -65,-16 -87,-48 -30,-47 -25,-76 25,-131 60,-66 70,-67 151,-14 49,32 165,212 266,413 270,538 434,1158 522,1979 19,174 41,365 48,423 8,58 16,352 18,652 11,1736 19,1923 90,2030 99,152 231,118 495,-128 330,-310 472,-514 467,-674 -2,-76 21,-157 54,-194 66,-73 339,-556 508,-899 63,-130 169,-312 235,-406 66,-93 158,-241 204,-328 206,-388 584,-807 844,-935 106,-53 233,-133 282,-177 152,-140 596,-260 1062,-286 356,-20 429,-15 506,35 116,76 115,181 -2,257 -100,66 -541,187 -682,188 -47,0 -154,32 -238,71 -84,39 -221,102 -304,141 -84,39 -166,71 -182,71 -16,0 -118,83 -227,185 -190,179 -296,311 -410,512 -30,53 -94,160 -143,238 -48,77 -111,191 -139,253 -28,61 -98,192 -156,289 -57,98 -123,246 -145,329 -22,84 -70,201 -107,262 -37,60 -68,134 -68,164 0,93 -720,1431 -810,1507 -35,29 -84,93 -109,141 -24,49 -92,148 -150,220 l -106,132 89,83 c 275,255 362,675 252,1224 -19,94 -12,105 68,105 49,0 196,33 326,74 193,59 270,107 407,249 250,261 325,445 324,788 -1,243 -22,339 -151,688 -267,724 -281,773 -304,1034 l -21,258 153,132 c 85,72 194,139 243,149 298,58 568,177 545,239 -22,57 -351,164 -503,164 -272,0 -439,-80 -699,-335 -209,-204 -263,-281 -309,-439 -80,-274 -70,-443 52,-892 150,-550 167,-714 82,-809 -76,-85 -259,-171 -366,-171 -39,0 -253,103 -474,228 -478,272 -647,335 -891,336 -276,1 -340,40 -477,289 -68,123 -185,316 -261,430 -226,338 -356,554 -503,834 -76,145 -188,326 -248,401 -60,76 -110,161 -110,189 0,28 -86,181 -192,339 -105,158 -202,328 -214,378 -12,50 -61,137 -109,193 -49,57 -179,238 -289,404 -111,165 -213,316 -228,336 -15,19 -110,146 -211,282 -102,136 -193,255 -203,265 -85,84 -312,458 -287,473 55,34 184,340 160,379 -14,22 -77,-26 -153,-114 -158,-183 -242,-168 -160,29 76,180 35,270 -55,121 -38,-62 -83,-112 -100,-112 -17,0 -76,59 -131,132 -55,73 -108,140 -119,150 -11,10 -67,81 -124,159 -200,269 -1219,1303 -1509,1531 -109,85 -285,236 -390,335 -403,378 -787,682 -998,790 -79,40 -198,126 -265,190 -165,160 -429,340 -696,474 -122,62 -249,136 -282,165 -33,28 -91,61 -130,73 -40,12 -124,70 -189,129 -143,131 -362,246 -471,247 -44,0 -120,32 -169,70 -48,38 -112,69 -141,69 -66,1 -561,214 -683,295 -50,32 -133,59 -185,59 -87,0 -186,81 -189,154 -1,17 90,24 202,16 148,-11 282,-56 497,-164 161,-82 418,-178 569,-213 194,-46 392,-130 667,-285 216,-121 401,-234 412,-252 11,-18 44,-32 74,-32 83,0 295,-108 467,-239 269,-204 474,-290 691,-290 146,0 202,14 218,55 26,67 -127,377 -266,540 -56,65 -103,153 -104,194 -6,197 -59,332 -183,463 -73,78 -144,176 -157,220 -13,43 -62,108 -109,145 -77,61 -80,73 -30,115 51,42 50,52 -18,106 -40,33 -74,76 -74,96 0,34 -230,303 -361,424 -34,31 -62,71 -62,89 0,103 -577,763 -667,763 -54,0 -211,132 -321,270 -29,36 -96,118 -148,181 l -96,115 161,167 c 88,91 262,312 386,490 124,178 251,348 281,378 213,214 574,936 702,1406 30,112 78,286 106,388 28,102 69,305 92,450 23,146 55,336 71,423 38,213 39,283 1,283 -17,0 -42,-60 -54,-133 z M 24626,8179 c 153,-44 196,-77 270,-202 198,-338 219,-673 54,-864 l -82,-96 -232,246 c -230,245 -341,451 -394,734 -46,246 35,285 384,182 z m 777,-264 c 74,-71 123,-386 93,-598 -32,-224 -192,-586 -273,-617 -26,-10 -103,36 -170,104 l -122,122 132,121 c 123,112 133,137 131,310 -2,232 -67,534 -118,551 -22,7 -39,29 -39,49 0,42 317,5 366,-42 z m -389,17559 c -63,-200 -51,-272 31,-190 34,34 67,151 82,289 25,239 1,348 -38,170 -13,-56 -46,-177 -75,-269 z m -11628,-317 c -10,-44 -44,-172 -75,-285 -178,-647 -217,-1470 -69,-1470 38,0 49,98 54,467 3,257 2,499 -1,537 -4,39 9,110 28,159 19,49 42,153 51,230 9,78 27,209 41,291 26,156 3,211 -29,71 z m -3765,-79 c 0,-62 340,-244 369,-197 28,45 -79,144 -216,201 -144,61 -153,60 -153,-4 z m -752,-253 c -43,-43 -25,-118 29,-118 29,0 53,31 53,71 0,70 -38,91 -82,47 z m 281,-119 c -133,-40 -234,-134 -234,-218 0,-78 -64,-210 -120,-249 -22,-14 -74,-18 -116,-8 -96,22 -140,-37 -60,-81 36,-21 70,-110 90,-241 35,-220 114,-387 213,-449 98,-62 117,6 29,100 -106,112 -149,442 -58,442 31,0 57,-24 57,-53 0,-88 156,-160 395,-182 182,-17 274,-6 446,54 120,41 289,75 376,75 87,0 159,16 159,35 0,19 -56,35 -124,35 -112,0 -123,9 -123,101 0,136 -181,376 -344,457 -73,36 -192,100 -266,142 -144,83 -168,86 -320,40 z m 15696,-160 c -76,-76 -70,-96 15,-51 39,21 70,54 70,72 0,48 -21,43 -85,-21 z M 7296,24433 c -2,-82 27,-217 64,-300 37,-82 93,-221 125,-308 38,-104 90,-174 151,-202 129,-61 136,-36 30,119 -50,74 -91,168 -91,209 0,41 -32,104 -70,139 -39,35 -72,97 -74,138 -1,40 -32,137 -68,215 l -65,141 z m 2925,-184 c 0,-20 16,-36 35,-36 20,0 35,16 35,36 0,19 -15,35 -35,35 -19,0 -35,-16 -35,-35 z m 13988,-153 c -70,-107 -113,-412 -59,-412 23,0 41,25 41,54 0,30 31,117 70,193 77,150 91,247 36,247 -19,0 -58,-37 -88,-82 z M 8374,23967 c -23,-114 1,-212 52,-212 17,0 31,71 31,158 0,180 -51,213 -83,54 z m -49,-565 c 20,0 25,41 11,97 -13,53 -32,173 -44,265 -20,164 -50,222 -93,180 -43,-44 72,-542 126,-542 z m 23062,431 c 0,-80 16,-155 36,-167 24,-15 28,30 13,130 -31,202 -49,215 -49,37 z m 144,-760 c 42,-95 17,164 -36,382 -31,124 -33,115 -16,-82 10,-123 33,-258 52,-300 z m -23885,378 c 0,-55 158,-296 194,-296 88,0 80,49 -28,180 -105,126 -166,169 -166,116 z m 1686,-73 c 26,-10 56,-9 68,3 12,11 -9,20 -46,18 -41,-2 -50,-10 -22,-21 z m 14665,-191 c -178,-396 -217,-542 -325,-1232 -70,-443 -85,-742 -46,-873 l 29,-97 3,103 c 2,56 42,294 89,529 47,235 120,609 161,832 42,224 108,513 147,643 97,322 66,371 -58,95 z m -15749,88 c 2,-41 10,-49 21,-21 11,26 9,56 -2,68 -12,11 -20,-9 -19,-47 z m 4295,-87 c -8,-80 -1,-152 14,-161 58,-36 98,32 98,165 0,195 -93,191 -112,-4 z m -4224,-54 c 1,-41 10,-49 21,-21 10,25 9,56 -3,68 -11,11 -20,-9 -18,-47 z m 2815,-23 c -100,-86 -157,-203 -99,-203 19,0 96,63 170,141 147,155 93,202 -71,62 z m 227,-27 c -94,-38 -169,-162 -117,-194 20,-12 78,11 128,51 118,92 211,93 235,2 11,-42 48,-70 93,-70 41,0 105,-20 143,-43 55,-35 99,-32 220,12 83,30 148,69 144,87 -23,112 -663,230 -846,155 z m 7801,-269 c 14,-114 48,-315 75,-447 28,-133 50,-280 50,-329 0,-49 15,-78 35,-66 45,28 46,324 2,520 -19,83 -47,229 -62,324 -15,96 -50,181 -77,190 -39,13 -44,-23 -23,-192 z m -7107,-209 c 0,-99 105,-94 267,14 89,59 208,117 265,130 105,23 144,87 53,87 -27,0 -71,8 -97,17 -26,8 -106,-5 -179,-31 -183,-66 -309,-154 -309,-217 z m 6937,-447 c 45,-245 51,-369 25,-543 -26,-176 -24,-225 11,-225 122,0 144,546 38,968 -39,155 -132,268 -132,160 0,-23 26,-185 58,-360 z m -3206,-115 c -339,-359 -375,-406 -313,-406 95,0 722,706 671,756 -8,7 -169,-150 -358,-350 z m 15919,-335 c 38,-127 70,-253 70,-280 0,-28 31,-115 68,-194 37,-79 93,-293 123,-475 31,-182 74,-353 96,-381 41,-48 108,-1114 76,-1199 -9,-23 2,-75 25,-116 60,-113 -31,-646 -201,-1179 -15,-47 -7,-62 28,-50 28,9 70,114 96,243 26,124 69,307 97,406 96,339 137,905 92,1246 -23,171 -41,396 -41,501 0,104 -23,261 -50,349 -28,87 -66,238 -85,335 -52,274 -143,585 -218,746 -37,80 -78,186 -90,236 -32,128 -110,187 -136,104 -11,-35 11,-166 50,-292 z M 8319,21229 c 1,-41 10,-49 21,-21 10,26 9,56 -3,68 -11,11 -20,-9 -18,-47 z m 211,-192 c 2,-115 5,-117 41,-42 29,60 28,92 -2,122 -32,31 -41,12 -39,-80 z m 263,-124 c 51,-66 53,-64 44,34 -9,103 -98,178 -98,83 0,-27 24,-80 54,-117 z m 2353,-71 c 37,-37 133,31 133,94 0,37 1,79 3,93 8,75 -70,32 -109,-61 -24,-60 -37,-116 -27,-126 z m -1789,161 c 12,-19 44,-35 72,-35 28,0 51,16 51,35 0,19 -33,35 -73,35 -40,0 -62,-16 -50,-35 z m 1640,-300 c 41,-25 117,148 86,197 -23,38 -65,42 -98,9 -36,-36 -28,-181 12,-206 z m 21449,106 c 0,-78 16,-165 35,-194 25,-39 34,-16 34,88 0,78 -16,165 -34,194 -26,39 -35,16 -35,-88 z m -21637,-78 c -31,-50 19,-225 60,-212 52,18 51,210 -1,227 -23,8 -49,1 -59,-15 z m 2137,-19 c 26,-78 231,-175 315,-148 71,23 64,32 -79,107 -176,92 -258,106 -236,41 z m 19576,-335 c 18,-92 33,-422 34,-732 1,-340 13,-537 31,-494 76,179 11,1393 -75,1393 -12,0 -8,-75 10,-167 z m -18927,35 c -38,-61 154,-220 267,-220 101,0 73,57 -69,146 -176,109 -176,109 -198,74 z m -1998,-341 c 0,-66 67,-108 108,-68 18,19 2,50 -39,75 -57,36 -69,35 -69,-7 z m -2777,-760 c 189,-93 236,-103 340,-73 66,19 157,26 203,14 99,-25 329,14 329,55 0,16 -92,38 -203,48 -112,10 -239,30 -282,44 -60,19 -80,11 -80,-32 0,-78 -38,-72 -232,31 -92,48 -186,88 -210,88 -24,0 -101,64 -171,141 -128,142 -163,166 -163,112 0,-82 274,-332 469,-428 z m 23684,-307 c -37,-37 -27,-188 12,-188 19,0 35,47 35,106 0,109 -7,122 -47,82 z m 5375,-2089 c 40,-142 63,-287 52,-323 -14,-43 1,-71 49,-86 38,-12 111,-92 162,-179 50,-86 100,-157 111,-157 39,0 -34,230 -84,267 -51,37 -148,271 -149,358 -1,81 -147,433 -180,433 -18,0 -33,-12 -33,-27 0,-15 33,-143 72,-286 z m -21801,-225 c -2,-70 296,-602 307,-550 8,33 -27,136 -77,230 -96,181 -229,365 -230,320 z m 21753,-458 c 10,24 10,64 0,88 -10,24 -18,4 -18,-44 0,-49 8,-69 18,-44 z m 508,-503 c -53,-588 -66,-640 -188,-731 -100,-74 -255,-212 -605,-535 -75,-70 -158,-127 -182,-127 -25,0 -90,-38 -145,-84 -55,-46 -249,-173 -432,-281 -350,-208 -732,-529 -1125,-947 -81,-85 -185,-170 -209,-170 -39,0 -505,-321 -626,-432 -59,-53 -119,-97 -136,-97 -16,0 -112,-56 -214,-123 -337,-224 -927,-461 -893,-359 7,22 52,60 99,84 82,42 80,44 -52,44 -75,1 -194,-14 -264,-32 -670,-173 -881,-219 -1088,-235 -132,-10 -298,-35 -369,-56 -154,-46 -1023,16 -1334,94 -107,27 -313,65 -459,85 -746,102 -1289,192 -1623,269 -203,47 -537,117 -740,157 -445,85 -659,143 -918,248 -398,162 -766,288 -1023,351 -425,104 -1158,430 -1374,612 -292,247 -1571,778 -2236,930 -133,30 -272,85 -309,122 -37,36 -115,67 -174,67 -148,0 -352,90 -352,156 0,97 -61,59 -83,-51 -24,-121 7,-317 51,-317 16,0 44,27 63,60 31,55 57,51 328,-50 162,-60 429,-144 594,-185 603,-151 1523,-529 1764,-725 90,-74 849,-488 1056,-576 108,-46 331,-122 496,-168 165,-46 339,-99 388,-118 48,-18 271,-104 494,-190 493,-191 680,-244 1182,-340 213,-41 516,-105 673,-143 157,-38 459,-94 670,-125 544,-78 692,-102 1408,-227 815,-142 1453,-170 2064,-91 962,124 1286,187 1591,309 257,103 830,444 973,579 23,22 174,129 335,238 161,109 386,302 499,429 300,336 758,697 1106,870 100,50 307,203 459,340 151,138 379,333 505,433 437,349 608,669 533,997 -22,93 -39,239 -39,324 0,150 -55,244 -88,151 -9,-25 -32,-221 -51,-434 z m -21923,-24 c 33,-54 85,-30 125,58 55,119 100,79 100,-89 0,-76 16,-139 35,-139 56,0 142,199 142,331 0,133 -50,197 -85,108 -32,-85 -92,-24 -92,92 0,107 -91,150 -124,60 -61,-166 -116,-396 -101,-421 z m 434,-499 c 57,-12 137,-57 178,-101 70,-75 81,-77 170,-27 163,89 310,512 193,553 -27,10 -44,-16 -44,-67 0,-89 -158,-346 -212,-346 -18,0 15,71 74,158 72,106 100,182 85,229 -34,106 -68,87 -153,-84 -79,-158 -169,-258 -202,-224 -16,15 60,275 145,494 16,41 7,62 -28,62 -29,0 -109,-114 -180,-257 -157,-313 -160,-363 -26,-390 z m 708,249 c 0,-37 -31,-108 -70,-157 -39,-50 -71,-111 -71,-136 0,-26 -35,-71 -78,-101 -63,-44 -69,-63 -32,-99 37,-36 71,-16 180,106 138,154 205,354 151,451 -17,29 -42,42 -55,29 -13,-14 -25,-55 -25,-93 z m 43,-340 c -135,-270 -134,-263 -26,-236 71,18 109,8 141,-36 24,-33 61,-49 83,-35 80,49 156,515 84,515 -15,0 -47,-71 -70,-158 -23,-88 -59,-159 -78,-159 -47,0 -45,14 18,164 61,147 68,259 16,259 -20,0 -45,-28 -55,-62 -10,-33 -61,-147 -113,-252 z m 487,-127 c 0,-43 -32,-114 -72,-159 -82,-96 -74,-158 21,-158 85,0 155,139 156,308 0,125 -28,163 -82,109 -13,-13 -23,-58 -23,-100 z m 214,-125 c -84,-185 -80,-234 14,-198 64,25 124,166 124,290 0,136 -51,101 -138,-92 z m 200,-28 c -75,-164 -78,-217 -10,-217 68,0 125,110 125,244 0,145 -40,135 -115,-27 z m 2564,-268 c -36,-99 -39,-151 -13,-177 64,-62 139,84 139,270 0,174 -23,217 -57,108 -10,-34 -41,-125 -69,-201 z"
     id="path674"
     style="display:inline" /></g>
</svg>
